<?xml version="1.0" encoding="UTF-8" standalone="no"?><svg xmlns="http://www.w3.org/2000/svg" xmlns:xlink="http://www.w3.org/1999/xlink" clip-rule="evenodd" stroke-miterlimit="10" viewBox="0 0 760 37"><desc>SVG generated by Keynote</desc><defs></defs><g transform="matrix(1.00, 0.00, -0.00, -1.00, 0.0, 37.0)"><text xml:space="preserve" font-family="AvenirNext-Italic,Avenir Next" font-style="italic" font-size="34.0" fill="#67AA3B" transform="matrix(1.00, 0.00, -0.00, -1.00, 1.0, 9.4)">a</text><text xml:space="preserve" font-family="AvenirNext-Italic,Avenir Next" font-style="italic" font-size="34.0" fill="#67AA3B" transform="matrix(1.00, 0.00, -0.00, -1.00, 19.2, 9.4)">n</text><text xml:space="preserve" font-family="AvenirNext-Italic,Avenir Next" font-style="italic" font-size="34.0" fill="#67AA3B" transform="matrix(1.00, 0.00, -0.00, -1.00, 38.8, 9.4)">d</text><text xml:space="preserve" font-family="AvenirNext-Italic,Avenir Next" font-style="italic" font-size="34.0" fill="#67AA3B" transform="matrix(1.00, 0.00, -0.00, -1.00, 59.9, 9.4)"> </text><text xml:space="preserve" font-family="AvenirNext-Italic,Avenir Next" font-style="italic" font-size="34.0" fill="#67AA3B" transform="matrix(1.00, 0.00, -0.00, -1.00, 68.4, 9.4)">w</text><text xml:space="preserve" font-family="AvenirNext-Italic,Avenir Next" font-style="italic" font-size="34.0" fill="#67AA3B" transform="matrix(1.00, 0.00, -0.00, -1.00, 93.3, 9.4)">i</text><text xml:space="preserve" font-family="AvenirNext-Italic,Avenir Next" font-style="italic" font-size="34.0" fill="#67AA3B" transform="matrix(1.00, 0.00, -0.00, -1.00, 101.8, 9.4)">t</text><text xml:space="preserve" font-family="AvenirNext-Italic,Avenir Next" font-style="italic" font-size="34.0" fill="#67AA3B" transform="matrix(1.00, 0.00, -0.00, -1.00, 112.3, 9.4)">h</text><text xml:space="preserve" font-family="AvenirNext-Italic,Avenir Next" font-style="italic" font-size="34.0" fill="#67AA3B" transform="matrix(1.00, 0.00, -0.00, -1.00, 131.9, 9.4)">o</text><text xml:space="preserve" font-family="AvenirNext-Italic,Avenir Next" font-style="italic" font-size="34.0" fill="#67AA3B" transform="matrix(1.00, 0.00, -0.00, -1.00, 152.2, 9.4)">u</text><text xml:space="preserve" font-family="AvenirNext-Italic,Avenir Next" font-style="italic" font-size="34.0" fill="#67AA3B" transform="matrix(1.00, 0.00, -0.00, -1.00, 171.8, 9.4)">t</text><text xml:space="preserve" font-family="AvenirNext-Italic,Avenir Next" font-style="italic" font-size="34.0" fill="#67AA3B" transform="matrix(1.00, 0.00, -0.00, -1.00, 182.2, 9.4)"> </text><text xml:space="preserve" font-family="AvenirNext-Italic,Avenir Next" font-style="italic" font-size="34.0" fill="#67AA3B" transform="matrix(1.00, 0.00, -0.00, -1.00, 190.7, 9.4)">r</text><text xml:space="preserve" font-family="AvenirNext-Italic,Avenir Next" font-style="italic" font-size="34.0" fill="#67AA3B" transform="matrix(1.00, 0.00, -0.00, -1.00, 202.1, 9.4)">e</text><text xml:space="preserve" font-family="AvenirNext-Italic,Avenir Next" font-style="italic" font-size="34.0" fill="#67AA3B" transform="matrix(1.00, 0.00, -0.00, -1.00, 221.4, 9.4)">g</text><text xml:space="preserve" font-family="AvenirNext-Italic,Avenir Next" font-style="italic" font-size="34.0" fill="#67AA3B" transform="matrix(1.00, 0.00, -0.00, -1.00, 242.7, 9.4)">a</text><text xml:space="preserve" font-family="AvenirNext-Italic,Avenir Next" font-style="italic" font-size="34.0" fill="#67AA3B" transform="matrix(1.00, 0.00, -0.00, -1.00, 260.9, 9.4)">r</text><text xml:space="preserve" font-family="AvenirNext-Italic,Avenir Next" font-style="italic" font-size="34.0" fill="#67AA3B" transform="matrix(1.00, 0.00, -0.00, -1.00, 272.3, 9.4)">d</text><text xml:space="preserve" font-family="AvenirNext-Italic,Avenir Next" font-style="italic" font-size="34.0" fill="#67AA3B" transform="matrix(1.00, 0.00, -0.00, -1.00, 293.4, 9.4)"> </text><text xml:space="preserve" font-family="AvenirNext-Italic,Avenir Next" font-style="italic" font-size="34.0" fill="#67AA3B" transform="matrix(1.00, 0.00, -0.00, -1.00, 301.9, 9.4)">t</text><text xml:space="preserve" font-family="AvenirNext-Italic,Avenir Next" font-style="italic" font-size="34.0" fill="#67AA3B" transform="matrix(1.00, 0.00, -0.00, -1.00, 312.4, 9.4)">o</text><text xml:space="preserve" font-family="AvenirNext-Italic,Avenir Next" font-style="italic" font-size="34.0" fill="#67AA3B" transform="matrix(1.00, 0.00, -0.00, -1.00, 332.6, 9.4)"> </text><text xml:space="preserve" font-family="AvenirNext-Italic,Avenir Next" font-style="italic" font-size="34.0" fill="#67AA3B" transform="matrix(1.00, 0.00, -0.00, -1.00, 341.1, 9.4)">a</text><text xml:space="preserve" font-family="AvenirNext-Italic,Avenir Next" font-style="italic" font-size="34.0" fill="#67AA3B" transform="matrix(1.00, 0.00, -0.00, -1.00, 359.3, 9.4)">n</text><text xml:space="preserve" font-family="AvenirNext-Italic,Avenir Next" font-style="italic" font-size="34.0" fill="#67AA3B" transform="matrix(1.00, 0.00, -0.00, -1.00, 378.9, 9.4)">y</text><text xml:space="preserve" font-family="AvenirNext-Italic,Avenir Next" font-style="italic" font-size="34.0" fill="#67AA3B" transform="matrix(1.00, 0.00, -0.00, -1.00, 395.3, 9.4)"> </text><text xml:space="preserve" font-family="AvenirNext-Italic,Avenir Next" font-style="italic" font-size="34.0" fill="#67AA3B" transform="matrix(1.00, 0.00, -0.00, -1.00, 403.8, 9.4)">c</text><text xml:space="preserve" font-family="AvenirNext-Italic,Avenir Next" font-style="italic" font-size="34.0" fill="#67AA3B" transform="matrix(1.00, 0.00, -0.00, -1.00, 420.8, 9.4)">e</text><text xml:space="preserve" font-family="AvenirNext-Italic,Avenir Next" font-style="italic" font-size="34.0" fill="#67AA3B" transform="matrix(1.00, 0.00, -0.00, -1.00, 440.1, 9.4)">n</text><text xml:space="preserve" font-family="AvenirNext-Italic,Avenir Next" font-style="italic" font-size="34.0" fill="#67AA3B" transform="matrix(1.00, 0.00, -0.00, -1.00, 459.7, 9.4)">s</text><text xml:space="preserve" font-family="AvenirNext-Italic,Avenir Next" font-style="italic" font-size="34.0" fill="#67AA3B" transform="matrix(1.00, 0.00, -0.00, -1.00, 474.8, 9.4)">u</text><text xml:space="preserve" font-family="AvenirNext-Italic,Avenir Next" font-style="italic" font-size="34.0" fill="#67AA3B" transform="matrix(1.00, 0.00, -0.00, -1.00, 494.4, 9.4)">s</text><text xml:space="preserve" font-family="AvenirNext-Italic,Avenir Next" font-style="italic" font-size="34.0" fill="#67AA3B" transform="matrix(1.00, 0.00, -0.00, -1.00, 509.5, 9.4)"> </text><text xml:space="preserve" font-family="AvenirNext-Italic,Avenir Next" font-style="italic" font-size="34.0" fill="#67AA3B" transform="matrix(1.00, 0.00, -0.00, -1.00, 518.0, 9.4)">o</text><text xml:space="preserve" font-family="AvenirNext-Italic,Avenir Next" font-style="italic" font-size="34.0" fill="#67AA3B" transform="matrix(1.00, 0.00, -0.00, -1.00, 538.3, 9.4)">r</text><text xml:space="preserve" font-family="AvenirNext-Italic,Avenir Next" font-style="italic" font-size="34.0" fill="#67AA3B" transform="matrix(1.00, 0.00, -0.00, -1.00, 550.1, 9.4)"> </text><text xml:space="preserve" font-family="AvenirNext-Italic,Avenir Next" font-style="italic" font-size="34.0" fill="#67AA3B" transform="matrix(1.00, 0.00, -0.00, -1.00, 558.6, 9.4)">e</text><text xml:space="preserve" font-family="AvenirNext-Italic,Avenir Next" font-style="italic" font-size="34.0" fill="#67AA3B" transform="matrix(1.00, 0.00, -0.00, -1.00, 577.8, 9.4)">n</text><text xml:space="preserve" font-family="AvenirNext-Italic,Avenir Next" font-style="italic" font-size="34.0" fill="#67AA3B" transform="matrix(1.00, 0.00, -0.00, -1.00, 597.5, 9.4)">u</text><text xml:space="preserve" font-family="AvenirNext-Italic,Avenir Next" font-style="italic" font-size="34.0" fill="#67AA3B" transform="matrix(1.00, 0.00, -0.00, -1.00, 617.1, 9.4)">m</text><text xml:space="preserve" font-family="AvenirNext-Italic,Avenir Next" font-style="italic" font-size="34.0" fill="#67AA3B" transform="matrix(1.00, 0.00, -0.00, -1.00, 646.8, 9.4)">e</text><text xml:space="preserve" font-family="AvenirNext-Italic,Avenir Next" font-style="italic" font-size="34.0" fill="#67AA3B" transform="matrix(1.00, 0.00, -0.00, -1.00, 666.0, 9.4)">r</text><text xml:space="preserve" font-family="AvenirNext-Italic,Avenir Next" font-style="italic" font-size="34.0" fill="#67AA3B" transform="matrix(1.00, 0.00, -0.00, -1.00, 677.5, 9.4)">a</text><text xml:space="preserve" font-family="AvenirNext-Italic,Avenir Next" font-style="italic" font-size="34.0" fill="#67AA3B" transform="matrix(1.00, 0.00, -0.00, -1.00, 695.3, 9.4)">t</text><text xml:space="preserve" font-family="AvenirNext-Italic,Avenir Next" font-style="italic" font-size="34.0" fill="#67AA3B" transform="matrix(1.00, 0.00, -0.00, -1.00, 705.7, 9.4)">i</text><text xml:space="preserve" font-family="AvenirNext-Italic,Avenir Next" font-style="italic" font-size="34.0" fill="#67AA3B" transform="matrix(1.00, 0.00, -0.00, -1.00, 714.2, 9.4)">o</text><text xml:space="preserve" font-family="AvenirNext-Italic,Avenir Next" font-style="italic" font-size="34.0" fill="#67AA3B" transform="matrix(1.00, 0.00, -0.00, -1.00, 734.5, 9.4)">n</text><text xml:space="preserve" font-family="AvenirNext-Italic,Avenir Next" font-style="italic" font-size="34.0" fill="#67AA3B" transform="matrix(1.00, 0.00, -0.00, -1.00, 754.1, 9.4)">.</text></g></svg>