<?xml version="1.0" encoding="UTF-8" standalone="no"?><svg xmlns="http://www.w3.org/2000/svg" xmlns:xlink="http://www.w3.org/1999/xlink" clip-rule="evenodd" stroke-miterlimit="10" viewBox="0 0 752 37"><desc>SVG generated by Keynote</desc><defs></defs><g transform="matrix(1.00, 0.00, -0.00, -1.00, 0.0, 37.0)"><text xml:space="preserve" font-family="AvenirNext-Italic,Avenir Next" font-style="italic" font-size="34.0" fill="#67AA3B" transform="matrix(1.00, 0.00, -0.00, -1.00, 0.0, 9.4)">w</text><text xml:space="preserve" font-family="AvenirNext-Italic,Avenir Next" font-style="italic" font-size="34.0" fill="#67AA3B" transform="matrix(1.00, 0.00, -0.00, -1.00, 24.9, 9.4)">i</text><text xml:space="preserve" font-family="AvenirNext-Italic,Avenir Next" font-style="italic" font-size="34.0" fill="#67AA3B" transform="matrix(1.00, 0.00, -0.00, -1.00, 33.4, 9.4)">t</text><text xml:space="preserve" font-family="AvenirNext-Italic,Avenir Next" font-style="italic" font-size="34.0" fill="#67AA3B" transform="matrix(1.00, 0.00, -0.00, -1.00, 43.9, 9.4)">h</text><text xml:space="preserve" font-family="AvenirNext-Italic,Avenir Next" font-style="italic" font-size="34.0" fill="#67AA3B" transform="matrix(1.00, 0.00, -0.00, -1.00, 63.5, 9.4)">o</text><text xml:space="preserve" font-family="AvenirNext-Italic,Avenir Next" font-style="italic" font-size="34.0" fill="#67AA3B" transform="matrix(1.00, 0.00, -0.00, -1.00, 83.7, 9.4)">u</text><text xml:space="preserve" font-family="AvenirNext-Italic,Avenir Next" font-style="italic" font-size="34.0" fill="#67AA3B" transform="matrix(1.00, 0.00, -0.00, -1.00, 103.4, 9.4)">t</text><text xml:space="preserve" font-family="AvenirNext-Italic,Avenir Next" font-style="italic" font-size="34.0" fill="#67AA3B" transform="matrix(1.00, 0.00, -0.00, -1.00, 113.8, 9.4)"> </text><text xml:space="preserve" font-family="AvenirNext-Italic,Avenir Next" font-style="italic" font-size="34.0" fill="#67AA3B" transform="matrix(1.00, 0.00, -0.00, -1.00, 122.3, 9.4)">a</text><text xml:space="preserve" font-family="AvenirNext-Italic,Avenir Next" font-style="italic" font-size="34.0" fill="#67AA3B" transform="matrix(1.00, 0.00, -0.00, -1.00, 140.5, 9.4)">p</text><text xml:space="preserve" font-family="AvenirNext-Italic,Avenir Next" font-style="italic" font-size="34.0" fill="#67AA3B" transform="matrix(1.00, 0.00, -0.00, -1.00, 161.8, 9.4)">p</text><text xml:space="preserve" font-family="AvenirNext-Italic,Avenir Next" font-style="italic" font-size="34.0" fill="#67AA3B" transform="matrix(1.00, 0.00, -0.00, -1.00, 183.2, 9.4)">o</text><text xml:space="preserve" font-family="AvenirNext-Italic,Avenir Next" font-style="italic" font-size="34.0" fill="#67AA3B" transform="matrix(1.00, 0.00, -0.00, -1.00, 203.4, 9.4)">r</text><text xml:space="preserve" font-family="AvenirNext-Italic,Avenir Next" font-style="italic" font-size="34.0" fill="#67AA3B" transform="matrix(1.00, 0.00, -0.00, -1.00, 214.8, 9.4)">t</text><text xml:space="preserve" font-family="AvenirNext-Italic,Avenir Next" font-style="italic" font-size="34.0" fill="#67AA3B" transform="matrix(1.00, 0.00, -0.00, -1.00, 225.3, 9.4)">i</text><text xml:space="preserve" font-family="AvenirNext-Italic,Avenir Next" font-style="italic" font-size="34.0" fill="#67AA3B" transform="matrix(1.00, 0.00, -0.00, -1.00, 233.8, 9.4)">o</text><text xml:space="preserve" font-family="AvenirNext-Italic,Avenir Next" font-style="italic" font-size="34.0" fill="#67AA3B" transform="matrix(1.00, 0.00, -0.00, -1.00, 254.0, 9.4)">n</text><text xml:space="preserve" font-family="AvenirNext-Italic,Avenir Next" font-style="italic" font-size="34.0" fill="#67AA3B" transform="matrix(1.00, 0.00, -0.00, -1.00, 273.7, 9.4)">m</text><text xml:space="preserve" font-family="AvenirNext-Italic,Avenir Next" font-style="italic" font-size="34.0" fill="#67AA3B" transform="matrix(1.00, 0.00, -0.00, -1.00, 303.4, 9.4)">e</text><text xml:space="preserve" font-family="AvenirNext-Italic,Avenir Next" font-style="italic" font-size="34.0" fill="#67AA3B" transform="matrix(1.00, 0.00, -0.00, -1.00, 322.6, 9.4)">n</text><text xml:space="preserve" font-family="AvenirNext-Italic,Avenir Next" font-style="italic" font-size="34.0" fill="#67AA3B" transform="matrix(1.00, 0.00, -0.00, -1.00, 342.2, 9.4)">t</text><text xml:space="preserve" font-family="AvenirNext-Italic,Avenir Next" font-style="italic" font-size="34.0" fill="#67AA3B" transform="matrix(1.00, 0.00, -0.00, -1.00, 352.7, 9.4)"> </text><text xml:space="preserve" font-family="AvenirNext-Italic,Avenir Next" font-style="italic" font-size="34.0" fill="#67AA3B" transform="matrix(1.00, 0.00, -0.00, -1.00, 361.2, 9.4)">a</text><text xml:space="preserve" font-family="AvenirNext-Italic,Avenir Next" font-style="italic" font-size="34.0" fill="#67AA3B" transform="matrix(1.00, 0.00, -0.00, -1.00, 379.3, 9.4)">m</text><text xml:space="preserve" font-family="AvenirNext-Italic,Avenir Next" font-style="italic" font-size="34.0" fill="#67AA3B" transform="matrix(1.00, 0.00, -0.00, -1.00, 409.1, 9.4)">o</text><text xml:space="preserve" font-family="AvenirNext-Italic,Avenir Next" font-style="italic" font-size="34.0" fill="#67AA3B" transform="matrix(1.00, 0.00, -0.00, -1.00, 429.3, 9.4)">n</text><text xml:space="preserve" font-family="AvenirNext-Italic,Avenir Next" font-style="italic" font-size="34.0" fill="#67AA3B" transform="matrix(1.00, 0.00, -0.00, -1.00, 448.9, 9.4)">g</text><text xml:space="preserve" font-family="AvenirNext-Italic,Avenir Next" font-style="italic" font-size="34.0" fill="#67AA3B" transform="matrix(1.00, 0.00, -0.00, -1.00, 470.3, 9.4)"> </text><text xml:space="preserve" font-family="AvenirNext-Italic,Avenir Next" font-style="italic" font-size="34.0" fill="#67AA3B" transform="matrix(1.00, 0.00, -0.00, -1.00, 478.8, 9.4)">t</text><text xml:space="preserve" font-family="AvenirNext-Italic,Avenir Next" font-style="italic" font-size="34.0" fill="#67AA3B" transform="matrix(1.00, 0.00, -0.00, -1.00, 489.2, 9.4)">h</text><text xml:space="preserve" font-family="AvenirNext-Italic,Avenir Next" font-style="italic" font-size="34.0" fill="#67AA3B" transform="matrix(1.00, 0.00, -0.00, -1.00, 508.8, 9.4)">e</text><text xml:space="preserve" font-family="AvenirNext-Italic,Avenir Next" font-style="italic" font-size="34.0" fill="#67AA3B" transform="matrix(1.00, 0.00, -0.00, -1.00, 528.1, 9.4)"> </text><text xml:space="preserve" font-family="AvenirNext-Italic,Avenir Next" font-style="italic" font-size="34.0" fill="#67AA3B" transform="matrix(1.00, 0.00, -0.00, -1.00, 536.6, 9.4)">s</text><text xml:space="preserve" font-family="AvenirNext-Italic,Avenir Next" font-style="italic" font-size="34.0" fill="#67AA3B" transform="matrix(1.00, 0.00, -0.00, -1.00, 551.7, 9.4)">e</text><text xml:space="preserve" font-family="AvenirNext-Italic,Avenir Next" font-style="italic" font-size="34.0" fill="#67AA3B" transform="matrix(1.00, 0.00, -0.00, -1.00, 570.9, 9.4)">v</text><text xml:space="preserve" font-family="AvenirNext-Italic,Avenir Next" font-style="italic" font-size="34.0" fill="#67AA3B" transform="matrix(1.00, 0.00, -0.00, -1.00, 587.1, 9.4)">e</text><text xml:space="preserve" font-family="AvenirNext-Italic,Avenir Next" font-style="italic" font-size="34.0" fill="#67AA3B" transform="matrix(1.00, 0.00, -0.00, -1.00, 606.4, 9.4)">r</text><text xml:space="preserve" font-family="AvenirNext-Italic,Avenir Next" font-style="italic" font-size="34.0" fill="#67AA3B" transform="matrix(1.00, 0.00, -0.00, -1.00, 617.8, 9.4)">a</text><text xml:space="preserve" font-family="AvenirNext-Italic,Avenir Next" font-style="italic" font-size="34.0" fill="#67AA3B" transform="matrix(1.00, 0.00, -0.00, -1.00, 636.0, 9.4)">l</text><text xml:space="preserve" font-family="AvenirNext-Italic,Avenir Next" font-style="italic" font-size="34.0" fill="#67AA3B" transform="matrix(1.00, 0.00, -0.00, -1.00, 644.5, 9.4)"> </text><text xml:space="preserve" font-family="AvenirNext-Italic,Avenir Next" font-style="italic" font-size="34.0" fill="#67AA3B" transform="matrix(1.00, 0.00, -0.00, -1.00, 653.0, 9.4)">S</text><text xml:space="preserve" font-family="AvenirNext-Italic,Avenir Next" font-style="italic" font-size="34.0" fill="#67AA3B" transform="matrix(1.00, 0.00, -0.00, -1.00, 672.0, 9.4)">t</text><text xml:space="preserve" font-family="AvenirNext-Italic,Avenir Next" font-style="italic" font-size="34.0" fill="#67AA3B" transform="matrix(1.00, 0.00, -0.00, -1.00, 682.4, 9.4)">a</text><text xml:space="preserve" font-family="AvenirNext-Italic,Avenir Next" font-style="italic" font-size="34.0" fill="#67AA3B" transform="matrix(1.00, 0.00, -0.00, -1.00, 700.3, 9.4)">t</text><text xml:space="preserve" font-family="AvenirNext-Italic,Avenir Next" font-style="italic" font-size="34.0" fill="#67AA3B" transform="matrix(1.00, 0.00, -0.00, -1.00, 710.7, 9.4)">e</text><text xml:space="preserve" font-family="AvenirNext-Italic,Avenir Next" font-style="italic" font-size="34.0" fill="#67AA3B" transform="matrix(1.00, 0.00, -0.00, -1.00, 729.9, 9.4)">s</text><text xml:space="preserve" font-family="AvenirNext-Italic,Avenir Next" font-style="italic" font-size="34.0" fill="#67AA3B" transform="matrix(1.00, 0.00, -0.00, -1.00, 745.0, 9.4)">,</text></g></svg>