<?xml version="1.0" encoding="UTF-8" standalone="no"?><svg xmlns="http://www.w3.org/2000/svg" xmlns:xlink="http://www.w3.org/1999/xlink" clip-rule="evenodd" stroke-miterlimit="10" viewBox="0 0 553 43"><desc>SVG generated by Keynote</desc><defs></defs><g transform="matrix(1.00, 0.00, -0.00, -1.00, 0.0, 43.0)"><text xml:space="preserve" font-family="AvenirNext-Regular,Avenir Next" font-size="39.1" fill="#5A544B" transform="matrix(1.00, 0.00, -0.00, -1.00, 1.0, 11.3)">f</text><text xml:space="preserve" font-family="AvenirNext-Regular,Avenir Next" font-size="39.1" fill="#5A544B" transform="matrix(1.00, 0.00, -0.00, -1.00, 12.5, 11.3)">u</text><text xml:space="preserve" font-family="AvenirNext-Regular,Avenir Next" font-size="39.1" fill="#5A544B" transform="matrix(1.00, 0.00, -0.00, -1.00, 35.3, 11.3)">n</text><text xml:space="preserve" font-family="AvenirNext-Regular,Avenir Next" font-size="39.1" fill="#5A544B" transform="matrix(1.00, 0.00, -0.00, -1.00, 58.0, 11.3)">d</text><text xml:space="preserve" font-family="AvenirNext-Regular,Avenir Next" font-size="39.1" fill="#5A544B" transform="matrix(1.00, 0.00, -0.00, -1.00, 82.9, 11.3)">e</text><text xml:space="preserve" font-family="AvenirNext-Regular,Avenir Next" font-size="39.1" fill="#5A544B" transform="matrix(1.00, 0.00, -0.00, -1.00, 105.2, 11.3)">d</text><text xml:space="preserve" font-family="AvenirNext-Regular,Avenir Next" font-size="39.1" fill="#5A544B" transform="matrix(1.00, 0.00, -0.00, -1.00, 130.1, 11.3)"> </text><text xml:space="preserve" font-family="AvenirNext-Regular,Avenir Next" font-size="39.1" fill="#5A544B" transform="matrix(1.00, 0.00, -0.00, -1.00, 139.9, 11.3)">b</text><text xml:space="preserve" font-family="AvenirNext-Regular,Avenir Next" font-size="39.1" fill="#5A544B" transform="matrix(1.00, 0.00, -0.00, -1.00, 164.8, 11.3)">y</text><text xml:space="preserve" font-family="AvenirNext-Regular,Avenir Next" font-size="39.1" fill="#5A544B" transform="matrix(1.00, 0.00, -0.00, -1.00, 183.9, 11.3)"> </text><text xml:space="preserve" font-family="AvenirNext-Regular,Avenir Next" font-size="39.1" fill="#5A544B" transform="matrix(1.00, 0.00, -0.00, -1.00, 193.7, 11.3)">i</text><text xml:space="preserve" font-family="AvenirNext-Regular,Avenir Next" font-size="39.1" fill="#5A544B" transform="matrix(1.00, 0.00, -0.00, -1.00, 203.5, 11.3)">n</text><text xml:space="preserve" font-family="AvenirNext-Regular,Avenir Next" font-size="39.1" fill="#5A544B" transform="matrix(1.00, 0.00, -0.00, -1.00, 226.2, 11.3)">c</text><text xml:space="preserve" font-family="AvenirNext-Regular,Avenir Next" font-size="39.1" fill="#5A544B" transform="matrix(1.00, 0.00, -0.00, -1.00, 245.7, 11.3)">o</text><text xml:space="preserve" font-family="AvenirNext-Regular,Avenir Next" font-size="39.1" fill="#5A544B" transform="matrix(1.00, 0.00, -0.00, -1.00, 269.6, 11.3)">m</text><text xml:space="preserve" font-family="AvenirNext-Regular,Avenir Next" font-size="39.1" fill="#5A544B" transform="matrix(1.00, 0.00, -0.00, -1.00, 304.1, 11.3)">e</text><text xml:space="preserve" font-family="AvenirNext-Regular,Avenir Next" font-size="39.1" fill="#5A544B" transform="matrix(1.00, 0.00, -0.00, -1.00, 326.5, 11.3)"> </text><text xml:space="preserve" font-family="AvenirNext-Regular,Avenir Next" font-size="39.1" fill="#5A544B" transform="matrix(1.00, 0.00, -0.00, -1.00, 336.3, 11.3)">t</text><text xml:space="preserve" font-family="AvenirNext-Regular,Avenir Next" font-size="39.1" fill="#5A544B" transform="matrix(1.00, 0.00, -0.00, -1.00, 348.7, 11.3)">a</text><text xml:space="preserve" font-family="AvenirNext-Regular,Avenir Next" font-size="39.1" fill="#5A544B" transform="matrix(1.00, 0.00, -0.00, -1.00, 369.6, 11.3)">x</text><text xml:space="preserve" font-family="AvenirNext-Regular,Avenir Next" font-size="39.1" fill="#5A544B" transform="matrix(1.00, 0.00, -0.00, -1.00, 388.5, 11.3)"> </text><text xml:space="preserve" font-family="AvenirNext-DemiBold,Avenir Next" font-weight="bold" font-size="39.1" fill="#5A544B" transform="matrix(1.00, 0.00, -0.00, -1.00, 398.3, 11.3)">r</text><text xml:space="preserve" font-family="AvenirNext-DemiBold,Avenir Next" font-weight="bold" font-size="39.1" fill="#5A544B" transform="matrix(1.00, 0.00, -0.00, -1.00, 411.8, 11.3)">e</text><text xml:space="preserve" font-family="AvenirNext-DemiBold,Avenir Next" font-weight="bold" font-size="39.1" fill="#5A544B" transform="matrix(1.00, 0.00, -0.00, -1.00, 434.2, 11.3)">v</text><text xml:space="preserve" font-family="AvenirNext-DemiBold,Avenir Next" font-weight="bold" font-size="39.1" fill="#5A544B" transform="matrix(1.00, 0.00, -0.00, -1.00, 454.3, 11.3)">e</text><text xml:space="preserve" font-family="AvenirNext-DemiBold,Avenir Next" font-weight="bold" font-size="39.1" fill="#5A544B" transform="matrix(1.00, 0.00, -0.00, -1.00, 476.7, 11.3)">n</text><text xml:space="preserve" font-family="AvenirNext-DemiBold,Avenir Next" font-weight="bold" font-size="39.1" fill="#5A544B" transform="matrix(1.00, 0.00, -0.00, -1.00, 499.5, 11.3)">u</text><text xml:space="preserve" font-family="AvenirNext-DemiBold,Avenir Next" font-weight="bold" font-size="39.1" fill="#5A544B" transform="matrix(1.00, 0.00, -0.00, -1.00, 522.2, 11.3)">e</text><text xml:space="preserve" font-family="AvenirNext-Regular,Avenir Next" font-size="39.1" fill="#5A544B" transform="matrix(1.00, 0.00, -0.00, -1.00, 544.7, 11.3)">.</text></g></svg>