<?xml version="1.0" encoding="UTF-8" standalone="no"?><svg xmlns="http://www.w3.org/2000/svg" xmlns:xlink="http://www.w3.org/1999/xlink" clip-rule="evenodd" stroke-miterlimit="10" viewBox="0 0 941 47"><desc>SVG generated by Keynote</desc><defs></defs><g transform="matrix(1.00, 0.00, -0.00, -1.00, 0.0, 47.0)"><g><clipPath id="clip0x6100010a3c60"><path d="M 0.1 12.5 L 29.2 12.5 L 29.2 39.7 L 0.1 39.7 Z M 0.1 12.5 "></path></clipPath><g clip-path="url(#clip0x6100010a3c60)"><path d="M 28.8 22.2 C 29.1 21.8 29.2 21.4 29.2 20.9 C 29.2 20.1 28.7 19.3 27.8 18.5 C 26.8 17.8 25.7 17.4 24.5 17.4 C 22.9 17.4 21.1 18.6 18.9 20.9 C 18.9 20.9 18.9 17.4 18.9 17.4 C 18.9 17.1 19.0 16.7 19.2 16.2 C 19.4 15.7 19.5 15.4 19.5 15.1 C 19.5 14.4 19.2 13.8 18.4 13.3 C 17.7 12.7 16.9 12.5 16.2 12.5 C 14.9 12.5 13.7 13.1 12.8 14.2 C 12.5 14.5 12.4 15.5 12.5 17.0 C 12.6 18.6 12.7 20.2 12.8 21.8 C 12.0 21.2 10.4 20.3 8.1 19.1 C 7.9 18.7 6.9 18.2 5.4 17.7 C 4.3 17.6 3.1 17.8 1.9 18.3 C 0.7 18.9 0.1 19.6 0.1 20.5 C 0.1 20.7 0.2 21.0 0.3 21.2 C 0.5 21.7 1.0 22.1 1.7 22.3 C 2.9 22.7 3.6 22.9 3.7 23.0 C 3.7 23.0 10.1 26.5 10.1 26.5 C 10.1 26.5 5.6 28.7 5.6 28.7 C 4.9 28.7 4.0 29.0 2.9 29.7 C 2.7 30.0 2.6 30.4 2.6 30.8 C 2.6 31.8 3.2 32.9 4.5 33.9 C 5.8 35.0 7.1 35.5 8.4 35.5 C 8.8 35.5 9.2 35.4 9.6 35.3 C 10.1 35.1 10.5 34.7 10.8 34.1 C 11.2 33.3 11.9 32.6 12.8 32.0 C 12.8 32.0 12.9 36.1 12.9 36.1 C 12.8 36.7 12.8 37.5 12.9 38.6 C 13.5 39.3 14.6 39.7 16.5 39.7 C 18.1 39.7 19.2 39.2 19.8 38.2 C 20.0 37.8 20.1 36.9 19.9 35.4 C 19.8 34.1 19.6 32.8 19.5 31.4 C 19.5 31.4 21.9 32.6 21.9 32.6 C 22.3 33.2 23.2 33.7 24.5 34.3 C 25.4 34.3 26.3 34.0 27.2 33.2 C 28.1 32.4 28.5 31.6 28.5 30.7 C 28.5 30.3 28.4 29.9 28.2 29.6 C 28.0 29.2 27.6 29.0 27.0 28.9 C 26.3 28.7 25.8 28.5 25.5 28.4 C 25.5 28.4 22.0 25.9 22.0 25.9 C 22.0 25.9 26.6 23.4 26.6 23.4 C 27.1 23.2 27.9 22.8 28.8 22.2 Z M 28.8 22.2 " fill="#3995D6"></path></g></g><text xml:space="preserve" font-family="AvenirNext-DemiBold,Avenir Next" font-weight="bold" font-size="42.3" fill="#5A544B" transform="matrix(1.00, 0.00, -0.00, -1.00, 46.1, 12.7)">R</text><text xml:space="preserve" font-family="AvenirNext-DemiBold,Avenir Next" font-weight="bold" font-size="42.3" fill="#5A544B" transform="matrix(1.00, 0.00, -0.00, -1.00, 72.2, 12.7)">e</text><text xml:space="preserve" font-family="AvenirNext-DemiBold,Avenir Next" font-weight="bold" font-size="42.3" fill="#5A544B" transform="matrix(1.00, 0.00, -0.00, -1.00, 96.5, 12.7)">v</text><text xml:space="preserve" font-family="AvenirNext-DemiBold,Avenir Next" font-weight="bold" font-size="42.3" fill="#5A544B" transform="matrix(1.00, 0.00, -0.00, -1.00, 118.2, 12.7)">e</text><text xml:space="preserve" font-family="AvenirNext-DemiBold,Avenir Next" font-weight="bold" font-size="42.3" fill="#5A544B" transform="matrix(1.00, 0.00, -0.00, -1.00, 142.5, 12.7)">n</text><text xml:space="preserve" font-family="AvenirNext-DemiBold,Avenir Next" font-weight="bold" font-size="42.3" fill="#5A544B" transform="matrix(1.00, 0.00, -0.00, -1.00, 167.1, 12.7)">u</text><text xml:space="preserve" font-family="AvenirNext-DemiBold,Avenir Next" font-weight="bold" font-size="42.3" fill="#5A544B" transform="matrix(1.00, 0.00, -0.00, -1.00, 191.8, 12.7)">e</text><text xml:space="preserve" font-family="AvenirNext-DemiBold,Avenir Next" font-weight="bold" font-size="42.3" fill="#5A544B" transform="matrix(1.00, 0.00, -0.00, -1.00, 216.1, 12.7)">:</text><text xml:space="preserve" font-family="AvenirNext-Regular,Avenir Next" font-size="42.3" fill="#5A544B" transform="matrix(1.00, 0.00, -0.00, -1.00, 228.7, 12.7)"> </text><text xml:space="preserve" font-family="AvenirNext-Regular,Avenir Next" font-size="42.3" fill="#5A544B" transform="matrix(1.00, 0.00, -0.00, -1.00, 238.3, 12.7)">T</text><text xml:space="preserve" font-family="AvenirNext-Regular,Avenir Next" font-size="42.3" fill="#5A544B" transform="matrix(1.00, 0.00, -0.00, -1.00, 261.7, 12.7)">h</text><text xml:space="preserve" font-family="AvenirNext-Regular,Avenir Next" font-size="42.3" fill="#5A544B" transform="matrix(1.00, 0.00, -0.00, -1.00, 286.3, 12.7)">e</text><text xml:space="preserve" font-family="AvenirNext-Regular,Avenir Next" font-size="42.3" fill="#5A544B" transform="matrix(1.00, 0.00, -0.00, -1.00, 310.6, 12.7)"> </text><text xml:space="preserve" font-family="AvenirNext-Regular,Avenir Next" font-size="42.3" fill="#5A544B" transform="matrix(1.00, 0.00, -0.00, -1.00, 321.1, 12.7)">g</text><text xml:space="preserve" font-family="AvenirNext-Regular,Avenir Next" font-size="42.3" fill="#5A544B" transform="matrix(1.00, 0.00, -0.00, -1.00, 347.9, 12.7)">o</text><text xml:space="preserve" font-family="AvenirNext-Regular,Avenir Next" font-size="42.3" fill="#5A544B" transform="matrix(1.00, 0.00, -0.00, -1.00, 373.7, 12.7)">v</text><text xml:space="preserve" font-family="AvenirNext-Regular,Avenir Next" font-size="42.3" fill="#5A544B" transform="matrix(1.00, 0.00, -0.00, -1.00, 394.4, 12.7)">e</text><text xml:space="preserve" font-family="AvenirNext-Regular,Avenir Next" font-size="42.3" fill="#5A544B" transform="matrix(1.00, 0.00, -0.00, -1.00, 418.6, 12.7)">r</text><text xml:space="preserve" font-family="AvenirNext-Regular,Avenir Next" font-size="42.3" fill="#5A544B" transform="matrix(1.00, 0.00, -0.00, -1.00, 433.8, 12.7)">n</text><text xml:space="preserve" font-family="AvenirNext-Regular,Avenir Next" font-size="42.3" fill="#5A544B" transform="matrix(1.00, 0.00, -0.00, -1.00, 458.4, 12.7)">m</text><text xml:space="preserve" font-family="AvenirNext-Regular,Avenir Next" font-size="42.3" fill="#5A544B" transform="matrix(1.00, 0.00, -0.00, -1.00, 495.8, 12.7)">e</text><text xml:space="preserve" font-family="AvenirNext-Regular,Avenir Next" font-size="42.3" fill="#5A544B" transform="matrix(1.00, 0.00, -0.00, -1.00, 520.0, 12.7)">n</text><text xml:space="preserve" font-family="AvenirNext-Regular,Avenir Next" font-size="42.3" fill="#5A544B" transform="matrix(1.00, 0.00, -0.00, -1.00, 544.6, 12.7)">t</text><text xml:space="preserve" font-family="AvenirNext-Regular,Avenir Next" font-size="42.3" fill="#5A544B" transform="matrix(1.00, 0.00, -0.00, -1.00, 559.0, 12.7)">’</text><text xml:space="preserve" font-family="AvenirNext-Regular,Avenir Next" font-size="42.3" fill="#5A544B" transform="matrix(1.00, 0.00, -0.00, -1.00, 566.4, 12.7)">s</text><text xml:space="preserve" font-family="AvenirNext-Regular,Avenir Next" font-size="42.3" fill="#5A544B" transform="matrix(1.00, 0.00, -0.00, -1.00, 585.2, 12.7)"> </text><text xml:space="preserve" font-family="AvenirNext-Regular,Avenir Next" font-size="42.3" fill="#5A544B" transform="matrix(1.00, 0.00, -0.00, -1.00, 595.7, 12.7)">i</text><text xml:space="preserve" font-family="AvenirNext-Regular,Avenir Next" font-size="42.3" fill="#5A544B" transform="matrix(1.00, 0.00, -0.00, -1.00, 606.3, 12.7)">n</text><text xml:space="preserve" font-family="AvenirNext-Regular,Avenir Next" font-size="42.3" fill="#5A544B" transform="matrix(1.00, 0.00, -0.00, -1.00, 630.9, 12.7)">c</text><text xml:space="preserve" font-family="AvenirNext-Regular,Avenir Next" font-size="42.3" fill="#5A544B" transform="matrix(1.00, 0.00, -0.00, -1.00, 652.1, 12.7)">o</text><text xml:space="preserve" font-family="AvenirNext-Regular,Avenir Next" font-size="42.3" fill="#5A544B" transform="matrix(1.00, 0.00, -0.00, -1.00, 677.9, 12.7)">m</text><text xml:space="preserve" font-family="AvenirNext-Regular,Avenir Next" font-size="42.3" fill="#5A544B" transform="matrix(1.00, 0.00, -0.00, -1.00, 715.3, 12.7)">e</text><text xml:space="preserve" font-family="AvenirNext-Regular,Avenir Next" font-size="42.3" fill="#5A544B" transform="matrix(1.00, 0.00, -0.00, -1.00, 739.5, 12.7)"> </text><text xml:space="preserve" font-family="AvenirNext-Regular,Avenir Next" font-size="42.3" fill="#5A544B" transform="matrix(1.00, 0.00, -0.00, -1.00, 750.1, 12.7)">(</text><text xml:space="preserve" font-family="AvenirNext-Regular,Avenir Next" font-size="42.3" fill="#5A544B" transform="matrix(1.00, 0.00, -0.00, -1.00, 762.8, 12.7)">c</text><text xml:space="preserve" font-family="AvenirNext-Regular,Avenir Next" font-size="42.3" fill="#5A544B" transform="matrix(1.00, 0.00, -0.00, -1.00, 783.9, 12.7)">o</text><text xml:space="preserve" font-family="AvenirNext-Regular,Avenir Next" font-size="42.3" fill="#5A544B" transform="matrix(1.00, 0.00, -0.00, -1.00, 809.8, 12.7)">l</text><text xml:space="preserve" font-family="AvenirNext-Regular,Avenir Next" font-size="42.3" fill="#5A544B" transform="matrix(1.00, 0.00, -0.00, -1.00, 820.5, 12.7)">l</text><text xml:space="preserve" font-family="AvenirNext-Regular,Avenir Next" font-size="42.3" fill="#5A544B" transform="matrix(1.00, 0.00, -0.00, -1.00, 831.1, 12.7)">e</text><text xml:space="preserve" font-family="AvenirNext-Regular,Avenir Next" font-size="42.3" fill="#5A544B" transform="matrix(1.00, 0.00, -0.00, -1.00, 855.3, 12.7)">c</text><text xml:space="preserve" font-family="AvenirNext-Regular,Avenir Next" font-size="42.3" fill="#5A544B" transform="matrix(1.00, 0.00, -0.00, -1.00, 876.5, 12.7)">t</text><text xml:space="preserve" font-family="AvenirNext-Regular,Avenir Next" font-size="42.3" fill="#5A544B" transform="matrix(1.00, 0.00, -0.00, -1.00, 889.9, 12.7)">e</text><text xml:space="preserve" font-family="AvenirNext-Regular,Avenir Next" font-size="42.3" fill="#5A544B" transform="matrix(1.00, 0.00, -0.00, -1.00, 914.1, 12.7)">d</text></g></svg>