<?xml version="1.0" encoding="UTF-8" standalone="no"?><svg xmlns="http://www.w3.org/2000/svg" xmlns:xlink="http://www.w3.org/1999/xlink" clip-rule="evenodd" stroke-miterlimit="10" viewBox="0 0 165 38"><desc>SVG generated by Keynote</desc><defs></defs><g transform="matrix(1.00, 0.00, -0.00, -1.00, 0.0, 38.0)"><text xml:space="preserve" font-family="AvenirNext-Regular,Avenir Next" font-size="40.0" fill="#5A544B" transform="matrix(1.00, 0.00, -0.00, -1.00, 0.4, 4.6)">o</text><text xml:space="preserve" font-family="AvenirNext-Regular,Avenir Next" font-size="40.0" fill="#5A544B" transform="matrix(1.00, 0.00, -0.00, -1.00, 24.8, 4.6)">s</text><text xml:space="preserve" font-family="AvenirNext-Regular,Avenir Next" font-size="40.0" fill="#5A544B" transform="matrix(1.00, 0.00, -0.00, -1.00, 42.6, 4.6)">t</text><text xml:space="preserve" font-family="AvenirNext-Regular,Avenir Next" font-size="40.0" fill="#5A544B" transform="matrix(1.00, 0.00, -0.00, -1.00, 55.2, 4.6)"> </text><text xml:space="preserve" font-family="AvenirNext-Regular,Avenir Next" font-size="40.0" fill="#5A544B" transform="matrix(1.00, 0.00, -0.00, -1.00, 65.2, 4.6)">$</text><text xml:space="preserve" font-family="AvenirNext-Regular,Avenir Next" font-size="40.0" fill="#5A544B" transform="matrix(1.00, 0.00, -0.00, -1.00, 88.4, 4.6)">.</text><text xml:space="preserve" font-family="AvenirNext-Regular,Avenir Next" font-size="40.0" fill="#5A544B" transform="matrix(1.00, 0.00, -0.00, -1.00, 98.8, 4.6)">9</text><text xml:space="preserve" font-family="AvenirNext-Regular,Avenir Next" font-size="40.0" fill="#5A544B" transform="matrix(1.00, 0.00, -0.00, -1.00, 122.0, 4.6)">9</text><text xml:space="preserve" font-family="AvenirNext-Regular,Avenir Next" font-size="40.0" fill="#5A544B" transform="matrix(1.00, 0.00, -0.00, -1.00, 145.2, 4.6)">?</text></g></svg>