<?xml version="1.0" encoding="UTF-8" standalone="no"?><svg xmlns="http://www.w3.org/2000/svg" xmlns:xlink="http://www.w3.org/1999/xlink" clip-rule="evenodd" stroke-miterlimit="10" viewBox="0 0 447 46"><desc>SVG generated by Keynote</desc><defs></defs><g transform="matrix(1.00, 0.00, -0.00, -1.00, 0.0, 46.0)"><text xml:space="preserve" font-family="AvenirNext-Regular,Avenir Next" font-size="42.3" fill="#5A544B" transform="matrix(1.00, 0.00, -0.00, -1.00, -1.9, 12.1)">b</text><text xml:space="preserve" font-family="AvenirNext-Regular,Avenir Next" font-size="42.3" fill="#5A544B" transform="matrix(1.00, 0.00, -0.00, -1.00, 25.1, 12.1)">y</text><text xml:space="preserve" font-family="AvenirNext-Regular,Avenir Next" font-size="42.3" fill="#5A544B" transform="matrix(1.00, 0.00, -0.00, -1.00, 45.7, 12.1)"> </text><text xml:space="preserve" font-family="AvenirNext-Regular,Avenir Next" font-size="42.3" fill="#5A544B" transform="matrix(1.00, 0.00, -0.00, -1.00, 56.3, 12.1)">i</text><text xml:space="preserve" font-family="AvenirNext-Regular,Avenir Next" font-size="42.3" fill="#5A544B" transform="matrix(1.00, 0.00, -0.00, -1.00, 66.9, 12.1)">n</text><text xml:space="preserve" font-family="AvenirNext-Regular,Avenir Next" font-size="42.3" fill="#5A544B" transform="matrix(1.00, 0.00, -0.00, -1.00, 91.5, 12.1)">c</text><text xml:space="preserve" font-family="AvenirNext-Regular,Avenir Next" font-size="42.3" fill="#5A544B" transform="matrix(1.00, 0.00, -0.00, -1.00, 112.6, 12.1)">o</text><text xml:space="preserve" font-family="AvenirNext-Regular,Avenir Next" font-size="42.3" fill="#5A544B" transform="matrix(1.00, 0.00, -0.00, -1.00, 138.5, 12.1)">m</text><text xml:space="preserve" font-family="AvenirNext-Regular,Avenir Next" font-size="42.3" fill="#5A544B" transform="matrix(1.00, 0.00, -0.00, -1.00, 175.8, 12.1)">e</text><text xml:space="preserve" font-family="AvenirNext-Regular,Avenir Next" font-size="42.3" fill="#5A544B" transform="matrix(1.00, 0.00, -0.00, -1.00, 200.0, 12.1)"> </text><text xml:space="preserve" font-family="AvenirNext-Regular,Avenir Next" font-size="42.3" fill="#5A544B" transform="matrix(1.00, 0.00, -0.00, -1.00, 210.6, 12.1)">t</text><text xml:space="preserve" font-family="AvenirNext-Regular,Avenir Next" font-size="42.3" fill="#5A544B" transform="matrix(1.00, 0.00, -0.00, -1.00, 224.0, 12.1)">a</text><text xml:space="preserve" font-family="AvenirNext-Regular,Avenir Next" font-size="42.3" fill="#5A544B" transform="matrix(1.00, 0.00, -0.00, -1.00, 246.6, 12.1)">x</text><text xml:space="preserve" font-family="AvenirNext-Regular,Avenir Next" font-size="42.3" fill="#5A544B" transform="matrix(1.00, 0.00, -0.00, -1.00, 267.1, 12.1)"> </text><text xml:space="preserve" font-family="AvenirNext-DemiBold,Avenir Next" font-weight="bold" font-size="42.3" fill="#5A544B" transform="matrix(1.00, 0.00, -0.00, -1.00, 277.7, 12.1)">r</text><text xml:space="preserve" font-family="AvenirNext-DemiBold,Avenir Next" font-weight="bold" font-size="42.3" fill="#5A544B" transform="matrix(1.00, 0.00, -0.00, -1.00, 292.3, 12.1)">e</text><text xml:space="preserve" font-family="AvenirNext-DemiBold,Avenir Next" font-weight="bold" font-size="42.3" fill="#5A544B" transform="matrix(1.00, 0.00, -0.00, -1.00, 316.6, 12.1)">v</text><text xml:space="preserve" font-family="AvenirNext-DemiBold,Avenir Next" font-weight="bold" font-size="42.3" fill="#5A544B" transform="matrix(1.00, 0.00, -0.00, -1.00, 338.3, 12.1)">e</text><text xml:space="preserve" font-family="AvenirNext-DemiBold,Avenir Next" font-weight="bold" font-size="42.3" fill="#5A544B" transform="matrix(1.00, 0.00, -0.00, -1.00, 362.6, 12.1)">n</text><text xml:space="preserve" font-family="AvenirNext-DemiBold,Avenir Next" font-weight="bold" font-size="42.3" fill="#5A544B" transform="matrix(1.00, 0.00, -0.00, -1.00, 387.3, 12.1)">u</text><text xml:space="preserve" font-family="AvenirNext-DemiBold,Avenir Next" font-weight="bold" font-size="42.3" fill="#5A544B" transform="matrix(1.00, 0.00, -0.00, -1.00, 411.9, 12.1)">e</text><text xml:space="preserve" font-family="AvenirNext-Regular,Avenir Next" font-size="42.3" fill="#5A544B" transform="matrix(1.00, 0.00, -0.00, -1.00, 436.2, 12.1)">.</text></g></svg>