<?xml version="1.0" encoding="UTF-8" standalone="no"?><svg xmlns="http://www.w3.org/2000/svg" xmlns:xlink="http://www.w3.org/1999/xlink" clip-rule="evenodd" stroke-miterlimit="10" viewBox="0 0 279 47"><desc>SVG generated by Keynote</desc><defs></defs><g transform="matrix(1.00, 0.00, -0.00, -1.00, 0.0, 47.0)"><text xml:space="preserve" font-family="AvenirNext-Regular,Avenir Next" font-size="42.3" fill="#5A544B" transform="matrix(1.00, 0.00, -0.00, -1.00, 1.1, 12.7)">t</text><text xml:space="preserve" font-family="AvenirNext-Regular,Avenir Next" font-size="42.3" fill="#5A544B" transform="matrix(1.00, 0.00, -0.00, -1.00, 14.5, 12.7)">h</text><text xml:space="preserve" font-family="AvenirNext-Regular,Avenir Next" font-size="42.3" fill="#5A544B" transform="matrix(1.00, 0.00, -0.00, -1.00, 39.2, 12.7)">r</text><text xml:space="preserve" font-family="AvenirNext-Regular,Avenir Next" font-size="42.3" fill="#5A544B" transform="matrix(1.00, 0.00, -0.00, -1.00, 53.7, 12.7)">o</text><text xml:space="preserve" font-family="AvenirNext-Regular,Avenir Next" font-size="42.3" fill="#5A544B" transform="matrix(1.00, 0.00, -0.00, -1.00, 79.5, 12.7)">u</text><text xml:space="preserve" font-family="AvenirNext-Regular,Avenir Next" font-size="42.3" fill="#5A544B" transform="matrix(1.00, 0.00, -0.00, -1.00, 104.1, 12.7)">g</text><text xml:space="preserve" font-family="AvenirNext-Regular,Avenir Next" font-size="42.3" fill="#5A544B" transform="matrix(1.00, 0.00, -0.00, -1.00, 130.8, 12.7)">h</text><text xml:space="preserve" font-family="AvenirNext-Regular,Avenir Next" font-size="42.3" fill="#5A544B" transform="matrix(1.00, 0.00, -0.00, -1.00, 155.5, 12.7)"> </text><text xml:space="preserve" font-family="AvenirNext-Regular,Avenir Next" font-size="42.3" fill="#5A544B" transform="matrix(1.00, 0.00, -0.00, -1.00, 166.1, 12.7)">t</text><text xml:space="preserve" font-family="AvenirNext-Regular,Avenir Next" font-size="42.3" fill="#5A544B" transform="matrix(1.00, 0.00, -0.00, -1.00, 179.5, 12.7)">a</text><text xml:space="preserve" font-family="AvenirNext-Regular,Avenir Next" font-size="42.3" fill="#5A544B" transform="matrix(1.00, 0.00, -0.00, -1.00, 202.1, 12.7)">x</text><text xml:space="preserve" font-family="AvenirNext-Regular,Avenir Next" font-size="42.3" fill="#5A544B" transform="matrix(1.00, 0.00, -0.00, -1.00, 222.3, 12.7)">e</text><text xml:space="preserve" font-family="AvenirNext-Regular,Avenir Next" font-size="42.3" fill="#5A544B" transform="matrix(1.00, 0.00, -0.00, -1.00, 246.5, 12.7)">s</text><text xml:space="preserve" font-family="AvenirNext-Regular,Avenir Next" font-size="42.3" fill="#5A544B" transform="matrix(1.00, 0.00, -0.00, -1.00, 265.3, 12.7)">)</text></g></svg>