<?xml version="1.0" encoding="UTF-8" standalone="no"?><svg xmlns="http://www.w3.org/2000/svg" xmlns:xlink="http://www.w3.org/1999/xlink" clip-rule="evenodd" stroke-miterlimit="10" viewBox="0 0 760 43"><desc>SVG generated by Keynote</desc><defs></defs><g transform="matrix(1.00, 0.00, -0.00, -1.00, 0.0, 43.0)"><g><clipPath id="clip0x600001ea0540"><path d="M 0.0 12.2 L 26.9 12.2 L 26.9 37.3 L 0.0 37.3 Z M 0.0 12.2 "></path></clipPath><g clip-path="url(#clip0x600001ea0540)"><path d="M 26.5 21.2 C 26.8 20.8 26.9 20.4 26.9 20.0 C 26.9 19.2 26.5 18.4 25.6 17.8 C 24.7 17.1 23.7 16.7 22.6 16.7 C 21.1 16.7 19.4 17.8 17.4 20.0 C 17.4 20.0 17.4 16.7 17.4 16.7 C 17.4 16.4 17.5 16.0 17.7 15.6 C 17.9 15.1 18.0 14.8 18.0 14.6 C 18.0 13.9 17.6 13.3 16.9 12.9 C 16.3 12.4 15.6 12.2 14.9 12.2 C 13.7 12.2 12.6 12.7 11.7 13.7 C 11.5 14.0 11.4 14.9 11.5 16.3 C 11.5 17.8 11.6 19.3 11.7 20.8 C 11.0 20.2 9.5 19.4 7.4 18.3 C 7.2 17.9 6.3 17.4 4.9 17.0 C 3.9 16.9 2.8 17.1 1.7 17.6 C 0.6 18.1 0.0 18.7 0.0 19.6 C 0.0 19.8 0.1 20.0 0.2 20.2 C 0.4 20.7 0.8 21.0 1.5 21.2 C 2.6 21.6 3.2 21.8 3.3 21.9 C 3.3 21.9 9.3 25.1 9.3 25.1 C 9.3 25.1 5.1 27.2 5.1 27.2 C 4.4 27.2 3.6 27.4 2.6 28.0 C 2.4 28.3 2.3 28.7 2.3 29.0 C 2.3 30.0 2.9 31.0 4.1 32.0 C 5.3 32.9 6.5 33.4 7.7 33.4 C 8.0 33.4 8.4 33.3 8.8 33.2 C 9.2 33.1 9.6 32.7 9.9 32.1 C 10.3 31.4 10.9 30.8 11.7 30.2 C 11.7 30.2 11.9 34.0 11.9 34.0 C 11.7 34.5 11.7 35.3 11.9 36.3 C 12.3 36.9 13.4 37.3 15.1 37.3 C 16.6 37.3 17.7 36.8 18.2 35.9 C 18.4 35.5 18.4 34.7 18.3 33.3 C 18.2 32.1 18.0 30.9 17.9 29.7 C 17.9 29.7 20.1 30.8 20.1 30.8 C 20.5 31.3 21.3 31.8 22.6 32.3 C 23.4 32.3 24.2 32.0 25.1 31.3 C 25.9 30.6 26.3 29.8 26.3 29.0 C 26.3 28.6 26.2 28.3 26.0 27.9 C 25.8 27.6 25.4 27.4 24.9 27.3 C 24.2 27.2 23.7 27.0 23.5 26.8 C 23.5 26.8 20.3 24.5 20.3 24.5 C 20.3 24.5 24.5 22.3 24.5 22.3 C 25.0 22.1 25.7 21.7 26.5 21.2 Z M 26.5 21.2 " fill="#3995D6"></path></g></g><text xml:space="preserve" font-family="AvenirNext-Regular,Avenir Next" font-size="39.1" fill="#5A544B" transform="matrix(1.00, 0.00, -0.00, -1.00, 42.5, 12.3)">C</text><text xml:space="preserve" font-family="AvenirNext-Regular,Avenir Next" font-size="39.1" fill="#5A544B" transform="matrix(1.00, 0.00, -0.00, -1.00, 70.7, 12.3)">r</text><text xml:space="preserve" font-family="AvenirNext-Regular,Avenir Next" font-size="39.1" fill="#5A544B" transform="matrix(1.00, 0.00, -0.00, -1.00, 84.0, 12.3)">e</text><text xml:space="preserve" font-family="AvenirNext-Regular,Avenir Next" font-size="39.1" fill="#5A544B" transform="matrix(1.00, 0.00, -0.00, -1.00, 106.2, 12.3)">a</text><text xml:space="preserve" font-family="AvenirNext-Regular,Avenir Next" font-size="39.1" fill="#5A544B" transform="matrix(1.00, 0.00, -0.00, -1.00, 126.6, 12.3)">t</text><text xml:space="preserve" font-family="AvenirNext-Regular,Avenir Next" font-size="39.1" fill="#5A544B" transform="matrix(1.00, 0.00, -0.00, -1.00, 139.0, 12.3)">e</text><text xml:space="preserve" font-family="AvenirNext-Regular,Avenir Next" font-size="39.1" fill="#5A544B" transform="matrix(1.00, 0.00, -0.00, -1.00, 161.4, 12.3)">d</text><text xml:space="preserve" font-family="AvenirNext-Regular,Avenir Next" font-size="39.1" fill="#5A544B" transform="matrix(1.00, 0.00, -0.00, -1.00, 186.3, 12.3)"> </text><text xml:space="preserve" font-family="AvenirNext-Regular,Avenir Next" font-size="39.1" fill="#5A544B" transform="matrix(1.00, 0.00, -0.00, -1.00, 196.1, 12.3)">b</text><text xml:space="preserve" font-family="AvenirNext-Regular,Avenir Next" font-size="39.1" fill="#5A544B" transform="matrix(1.00, 0.00, -0.00, -1.00, 221.0, 12.3)">y</text><text xml:space="preserve" font-family="AvenirNext-Regular,Avenir Next" font-size="39.1" fill="#5A544B" transform="matrix(1.00, 0.00, -0.00, -1.00, 240.1, 12.3)"> </text><text xml:space="preserve" font-family="AvenirNext-Regular,Avenir Next" font-size="39.1" fill="#5A544B" transform="matrix(1.00, 0.00, -0.00, -1.00, 249.8, 12.3)">t</text><text xml:space="preserve" font-family="AvenirNext-Regular,Avenir Next" font-size="39.1" fill="#5A544B" transform="matrix(1.00, 0.00, -0.00, -1.00, 262.2, 12.3)">h</text><text xml:space="preserve" font-family="AvenirNext-Regular,Avenir Next" font-size="39.1" fill="#5A544B" transform="matrix(1.00, 0.00, -0.00, -1.00, 285.0, 12.3)">e</text><text xml:space="preserve" font-family="AvenirNext-Regular,Avenir Next" font-size="39.1" fill="#5A544B" transform="matrix(1.00, 0.00, -0.00, -1.00, 307.4, 12.3)"> </text><text xml:space="preserve" font-family="AvenirNext-DemiBold,Avenir Next" font-weight="bold" font-size="39.1" fill="#5A544B" transform="matrix(1.00, 0.00, -0.00, -1.00, 317.2, 12.3)">1</text><text xml:space="preserve" font-family="AvenirNext-DemiBold,Avenir Next" font-weight="bold" font-size="39.1" fill="#5A544B" transform="matrix(1.00, 0.00, -0.00, -1.00, 341.0, 12.3)">6</text><text xml:space="preserve" font-family="AvenirNext-DemiBold,Avenir Next" font-weight="bold" font-size="39.1" fill="#5A544B" transform="matrix(1.00, 0.00, -0.00, -1.00, 364.9, 12.3)">t</text><text xml:space="preserve" font-family="AvenirNext-DemiBold,Avenir Next" font-weight="bold" font-size="39.1" fill="#5A544B" transform="matrix(1.00, 0.00, -0.00, -1.00, 378.2, 12.3)">h</text><text xml:space="preserve" font-family="AvenirNext-DemiBold,Avenir Next" font-weight="bold" font-size="39.1" fill="#5A544B" transform="matrix(1.00, 0.00, -0.00, -1.00, 401.0, 12.3)"> </text><text xml:space="preserve" font-family="AvenirNext-DemiBold,Avenir Next" font-weight="bold" font-size="39.1" fill="#5A544B" transform="matrix(1.00, 0.00, -0.00, -1.00, 410.1, 12.3)">A</text><text xml:space="preserve" font-family="AvenirNext-DemiBold,Avenir Next" font-weight="bold" font-size="39.1" fill="#5A544B" transform="matrix(1.00, 0.00, -0.00, -1.00, 437.7, 12.3)">m</text><text xml:space="preserve" font-family="AvenirNext-DemiBold,Avenir Next" font-weight="bold" font-size="39.1" fill="#5A544B" transform="matrix(1.00, 0.00, -0.00, -1.00, 472.5, 12.3)">e</text><text xml:space="preserve" font-family="AvenirNext-DemiBold,Avenir Next" font-weight="bold" font-size="39.1" fill="#5A544B" transform="matrix(1.00, 0.00, -0.00, -1.00, 494.9, 12.3)">n</text><text xml:space="preserve" font-family="AvenirNext-DemiBold,Avenir Next" font-weight="bold" font-size="39.1" fill="#5A544B" transform="matrix(1.00, 0.00, -0.00, -1.00, 517.7, 12.3)">d</text><text xml:space="preserve" font-family="AvenirNext-DemiBold,Avenir Next" font-weight="bold" font-size="39.1" fill="#5A544B" transform="matrix(1.00, 0.00, -0.00, -1.00, 542.5, 12.3)">m</text><text xml:space="preserve" font-family="AvenirNext-DemiBold,Avenir Next" font-weight="bold" font-size="39.1" fill="#5A544B" transform="matrix(1.00, 0.00, -0.00, -1.00, 577.3, 12.3)">e</text><text xml:space="preserve" font-family="AvenirNext-DemiBold,Avenir Next" font-weight="bold" font-size="39.1" fill="#5A544B" transform="matrix(1.00, 0.00, -0.00, -1.00, 599.7, 12.3)">n</text><text xml:space="preserve" font-family="AvenirNext-DemiBold,Avenir Next" font-weight="bold" font-size="39.1" fill="#5A544B" transform="matrix(1.00, 0.00, -0.00, -1.00, 622.5, 12.3)">t</text><text xml:space="preserve" font-family="AvenirNext-DemiBold,Avenir Next" font-weight="bold" font-size="39.1" fill="#5A544B" transform="matrix(1.00, 0.00, -0.00, -1.00, 635.8, 12.3)"> </text><text xml:space="preserve" font-family="AvenirNext-Regular,Avenir Next" font-size="39.1" fill="#5A544B" transform="matrix(1.00, 0.00, -0.00, -1.00, 645.5, 12.3)">(</text><text xml:space="preserve" font-family="AvenirNext-Regular,Avenir Next" font-size="39.1" fill="#5A544B" transform="matrix(1.00, 0.00, -0.00, -1.00, 657.3, 12.3)">1</text><text xml:space="preserve" font-family="AvenirNext-Regular,Avenir Next" font-size="39.1" fill="#5A544B" transform="matrix(1.00, 0.00, -0.00, -1.00, 679.9, 12.3)">9</text><text xml:space="preserve" font-family="AvenirNext-Regular,Avenir Next" font-size="39.1" fill="#5A544B" transform="matrix(1.00, 0.00, -0.00, -1.00, 702.6, 12.3)">1</text><text xml:space="preserve" font-family="AvenirNext-Regular,Avenir Next" font-size="39.1" fill="#5A544B" transform="matrix(1.00, 0.00, -0.00, -1.00, 725.3, 12.3)">3</text><text xml:space="preserve" font-family="AvenirNext-Regular,Avenir Next" font-size="39.1" fill="#5A544B" transform="matrix(1.00, 0.00, -0.00, -1.00, 748.0, 12.3)">)</text></g></svg>