<?xml version="1.0" encoding="UTF-8" standalone="no"?><svg xmlns="http://www.w3.org/2000/svg" xmlns:xlink="http://www.w3.org/1999/xlink" clip-rule="evenodd" stroke-miterlimit="10" viewBox="0 0 774 46"><desc>SVG generated by Keynote</desc><defs></defs><g transform="matrix(1.00, 0.00, -0.00, -1.00, 0.0, 46.0)"><g><clipPath id="clip0x608000ea64e0"><path d="M 0.1 11.7 L 29.2 11.7 L 29.2 38.9 L 0.1 38.9 Z M 0.1 11.7 "></path></clipPath><g clip-path="url(#clip0x608000ea64e0)"><path d="M 28.8 21.4 C 29.1 21.0 29.2 20.6 29.2 20.1 C 29.2 19.3 28.7 18.5 27.8 17.7 C 26.8 17.0 25.7 16.6 24.5 16.6 C 22.9 16.6 21.1 17.8 18.9 20.1 C 18.9 20.1 18.9 16.6 18.9 16.6 C 18.9 16.3 19.0 15.9 19.2 15.4 C 19.4 14.9 19.5 14.6 19.5 14.3 C 19.5 13.6 19.2 13.0 18.4 12.5 C 17.7 11.9 16.9 11.7 16.2 11.7 C 14.9 11.7 13.7 12.3 12.8 13.4 C 12.5 13.7 12.4 14.7 12.5 16.2 C 12.6 17.8 12.7 19.4 12.8 21.0 C 12.0 20.4 10.4 19.5 8.1 18.3 C 7.9 17.9 6.9 17.4 5.4 16.9 C 4.3 16.8 3.1 17.0 1.9 17.5 C 0.7 18.1 0.1 18.8 0.1 19.7 C 0.1 19.9 0.2 20.2 0.3 20.4 C 0.5 20.9 1.0 21.3 1.7 21.5 C 2.9 21.9 3.6 22.1 3.7 22.2 C 3.7 22.2 10.1 25.7 10.1 25.7 C 10.1 25.7 5.6 27.9 5.6 27.9 C 4.9 27.9 4.0 28.2 2.9 28.9 C 2.7 29.2 2.6 29.6 2.6 30.0 C 2.6 31.0 3.2 32.1 4.5 33.1 C 5.8 34.2 7.1 34.7 8.4 34.7 C 8.8 34.7 9.2 34.6 9.6 34.5 C 10.1 34.3 10.5 33.9 10.8 33.3 C 11.2 32.5 11.9 31.8 12.8 31.2 C 12.8 31.2 12.9 35.3 12.9 35.3 C 12.8 35.9 12.8 36.7 12.9 37.8 C 13.5 38.5 14.6 38.9 16.5 38.9 C 18.1 38.9 19.2 38.4 19.8 37.4 C 20.0 37.0 20.1 36.1 19.9 34.6 C 19.8 33.3 19.6 32.0 19.5 30.6 C 19.5 30.6 21.9 31.8 21.9 31.8 C 22.3 32.4 23.2 32.9 24.5 33.5 C 25.4 33.5 26.3 33.2 27.2 32.4 C 28.1 31.6 28.5 30.8 28.5 29.9 C 28.5 29.5 28.4 29.1 28.2 28.8 C 28.0 28.4 27.6 28.2 27.0 28.1 C 26.3 27.9 25.8 27.7 25.5 27.6 C 25.5 27.6 22.0 25.1 22.0 25.1 C 22.0 25.1 26.6 22.6 26.6 22.6 C 27.1 22.4 27.9 22.0 28.8 21.4 Z M 28.8 21.4 " fill="#3995D6"></path></g></g><text xml:space="preserve" font-family="AvenirNext-DemiBold,Avenir Next" font-weight="bold" font-size="42.3" fill="#5A544B" transform="matrix(1.00, 0.00, -0.00, -1.00, 46.1, 11.9)">A</text><text xml:space="preserve" font-family="AvenirNext-DemiBold,Avenir Next" font-weight="bold" font-size="42.3" fill="#5A544B" transform="matrix(1.00, 0.00, -0.00, -1.00, 76.0, 11.9)">g</text><text xml:space="preserve" font-family="AvenirNext-DemiBold,Avenir Next" font-weight="bold" font-size="42.3" fill="#5A544B" transform="matrix(1.00, 0.00, -0.00, -1.00, 102.7, 11.9)">r</text><text xml:space="preserve" font-family="AvenirNext-DemiBold,Avenir Next" font-weight="bold" font-size="42.3" fill="#5A544B" transform="matrix(1.00, 0.00, -0.00, -1.00, 117.6, 11.9)">a</text><text xml:space="preserve" font-family="AvenirNext-DemiBold,Avenir Next" font-weight="bold" font-size="42.3" fill="#5A544B" transform="matrix(1.00, 0.00, -0.00, -1.00, 140.8, 11.9)">r</text><text xml:space="preserve" font-family="AvenirNext-DemiBold,Avenir Next" font-weight="bold" font-size="42.3" fill="#5A544B" transform="matrix(1.00, 0.00, -0.00, -1.00, 156.3, 11.9)">i</text><text xml:space="preserve" font-family="AvenirNext-DemiBold,Avenir Next" font-weight="bold" font-size="42.3" fill="#5A544B" transform="matrix(1.00, 0.00, -0.00, -1.00, 167.6, 11.9)">a</text><text xml:space="preserve" font-family="AvenirNext-DemiBold,Avenir Next" font-weight="bold" font-size="42.3" fill="#5A544B" transform="matrix(1.00, 0.00, -0.00, -1.00, 190.9, 11.9)">n</text><text xml:space="preserve" font-family="AvenirNext-DemiBold,Avenir Next" font-weight="bold" font-size="42.3" fill="#5A544B" transform="matrix(1.00, 0.00, -0.00, -1.00, 215.5, 11.9)">:</text><text xml:space="preserve" font-family="AvenirNext-DemiBold,Avenir Next" font-weight="bold" font-size="42.3" fill="#5A544B" transform="matrix(1.00, 0.00, -0.00, -1.00, 228.2, 11.9)"> </text><text xml:space="preserve" font-family="AvenirNext-Regular,Avenir Next" font-size="42.3" fill="#5A544B" transform="matrix(1.00, 0.00, -0.00, -1.00, 238.8, 11.9)">r</text><text xml:space="preserve" font-family="AvenirNext-Regular,Avenir Next" font-size="42.3" fill="#5A544B" transform="matrix(1.00, 0.00, -0.00, -1.00, 253.3, 11.9)">e</text><text xml:space="preserve" font-family="AvenirNext-Regular,Avenir Next" font-size="42.3" fill="#5A544B" transform="matrix(1.00, 0.00, -0.00, -1.00, 277.5, 11.9)">l</text><text xml:space="preserve" font-family="AvenirNext-Regular,Avenir Next" font-size="42.3" fill="#5A544B" transform="matrix(1.00, 0.00, -0.00, -1.00, 288.1, 11.9)">a</text><text xml:space="preserve" font-family="AvenirNext-Regular,Avenir Next" font-size="42.3" fill="#5A544B" transform="matrix(1.00, 0.00, -0.00, -1.00, 310.3, 11.9)">t</text><text xml:space="preserve" font-family="AvenirNext-Regular,Avenir Next" font-size="42.3" fill="#5A544B" transform="matrix(1.00, 0.00, -0.00, -1.00, 323.7, 11.9)">i</text><text xml:space="preserve" font-family="AvenirNext-Regular,Avenir Next" font-size="42.3" fill="#5A544B" transform="matrix(1.00, 0.00, -0.00, -1.00, 334.3, 11.9)">n</text><text xml:space="preserve" font-family="AvenirNext-Regular,Avenir Next" font-size="42.3" fill="#5A544B" transform="matrix(1.00, 0.00, -0.00, -1.00, 358.9, 11.9)">g</text><text xml:space="preserve" font-family="AvenirNext-Regular,Avenir Next" font-size="42.3" fill="#5A544B" transform="matrix(1.00, 0.00, -0.00, -1.00, 385.6, 11.9)"> </text><text xml:space="preserve" font-family="AvenirNext-Regular,Avenir Next" font-size="42.3" fill="#5A544B" transform="matrix(1.00, 0.00, -0.00, -1.00, 396.2, 11.9)">t</text><text xml:space="preserve" font-family="AvenirNext-Regular,Avenir Next" font-size="42.3" fill="#5A544B" transform="matrix(1.00, 0.00, -0.00, -1.00, 409.6, 11.9)">o</text><text xml:space="preserve" font-family="AvenirNext-Regular,Avenir Next" font-size="42.3" fill="#5A544B" transform="matrix(1.00, 0.00, -0.00, -1.00, 435.5, 11.9)"> </text><text xml:space="preserve" font-family="AvenirNext-Regular,Avenir Next" font-size="42.3" fill="#5A544B" transform="matrix(1.00, 0.00, -0.00, -1.00, 446.1, 11.9)">l</text><text xml:space="preserve" font-family="AvenirNext-Regular,Avenir Next" font-size="42.3" fill="#5A544B" transform="matrix(1.00, 0.00, -0.00, -1.00, 456.7, 11.9)">a</text><text xml:space="preserve" font-family="AvenirNext-Regular,Avenir Next" font-size="42.3" fill="#5A544B" transform="matrix(1.00, 0.00, -0.00, -1.00, 479.3, 11.9)">n</text><text xml:space="preserve" font-family="AvenirNext-Regular,Avenir Next" font-size="42.3" fill="#5A544B" transform="matrix(1.00, 0.00, -0.00, -1.00, 503.9, 11.9)">d</text><text xml:space="preserve" font-family="AvenirNext-Regular,Avenir Next" font-size="42.3" fill="#5A544B" transform="matrix(1.00, 0.00, -0.00, -1.00, 530.9, 11.9)"> </text><text xml:space="preserve" font-family="AvenirNext-Regular,Avenir Next" font-size="42.3" fill="#5A544B" transform="matrix(1.00, 0.00, -0.00, -1.00, 541.4, 11.9)">a</text><text xml:space="preserve" font-family="AvenirNext-Regular,Avenir Next" font-size="42.3" fill="#5A544B" transform="matrix(1.00, 0.00, -0.00, -1.00, 564.0, 11.9)">n</text><text xml:space="preserve" font-family="AvenirNext-Regular,Avenir Next" font-size="42.3" fill="#5A544B" transform="matrix(1.00, 0.00, -0.00, -1.00, 588.6, 11.9)">d</text><text xml:space="preserve" font-family="AvenirNext-Regular,Avenir Next" font-size="42.3" fill="#5A544B" transform="matrix(1.00, 0.00, -0.00, -1.00, 615.6, 11.9)"> </text><text xml:space="preserve" font-family="AvenirNext-Regular,Avenir Next" font-size="42.3" fill="#5A544B" transform="matrix(1.00, 0.00, -0.00, -1.00, 626.2, 11.9)">f</text><text xml:space="preserve" font-family="AvenirNext-Regular,Avenir Next" font-size="42.3" fill="#5A544B" transform="matrix(1.00, 0.00, -0.00, -1.00, 638.7, 11.9)">a</text><text xml:space="preserve" font-family="AvenirNext-Regular,Avenir Next" font-size="42.3" fill="#5A544B" transform="matrix(1.00, 0.00, -0.00, -1.00, 661.3, 11.9)">r</text><text xml:space="preserve" font-family="AvenirNext-Regular,Avenir Next" font-size="42.3" fill="#5A544B" transform="matrix(1.00, 0.00, -0.00, -1.00, 676.5, 11.9)">m</text><text xml:space="preserve" font-family="AvenirNext-Regular,Avenir Next" font-size="42.3" fill="#5A544B" transform="matrix(1.00, 0.00, -0.00, -1.00, 713.9, 11.9)">i</text><text xml:space="preserve" font-family="AvenirNext-Regular,Avenir Next" font-size="42.3" fill="#5A544B" transform="matrix(1.00, 0.00, -0.00, -1.00, 724.4, 11.9)">n</text><text xml:space="preserve" font-family="AvenirNext-Regular,Avenir Next" font-size="42.3" fill="#5A544B" transform="matrix(1.00, 0.00, -0.00, -1.00, 749.0, 11.9)">g</text></g></svg>