<?xml version="1.0" encoding="UTF-8" standalone="no"?><svg xmlns="http://www.w3.org/2000/svg" xmlns:xlink="http://www.w3.org/1999/xlink" clip-rule="evenodd" stroke-miterlimit="10" viewBox="0 0 615 35"><desc>SVG generated by Keynote</desc><defs></defs><g transform="matrix(1.00, 0.00, -0.00, -1.00, 0.0, 35.0)"><text xml:space="preserve" font-family="CourierNewPSMT,Courier New" font-size="30.0" fill="#5A544B" transform="matrix(1.00, 0.00, -0.00, -1.00, 0.7, 10.0)">C</text><text xml:space="preserve" font-family="CourierNewPSMT,Courier New" font-size="30.0" fill="#5A544B" transform="matrix(1.00, 0.00, -0.00, -1.00, 18.7, 10.0)">o</text><text xml:space="preserve" font-family="CourierNewPSMT,Courier New" font-size="30.0" fill="#5A544B" transform="matrix(1.00, 0.00, -0.00, -1.00, 36.7, 10.0)">d</text><text xml:space="preserve" font-family="CourierNewPSMT,Courier New" font-size="30.0" fill="#5A544B" transform="matrix(1.00, 0.00, -0.00, -1.00, 54.7, 10.0)">e</text><text xml:space="preserve" font-family="CourierNewPSMT,Courier New" font-size="30.0" fill="#5A544B" transform="matrix(1.00, 0.00, -0.00, -1.00, 72.7, 10.0)"> </text><text xml:space="preserve" font-family="CourierNewPSMT,Courier New" font-size="30.0" fill="#5A544B" transform="matrix(1.00, 0.00, -0.00, -1.00, 92.7, 10.0)"> </text><text xml:space="preserve" font-family="CourierNewPSMT,Courier New" font-size="30.0" fill="#5A544B" transform="matrix(1.00, 0.00, -0.00, -1.00, 138.7, 10.0)">D</text><text xml:space="preserve" font-family="CourierNewPSMT,Courier New" font-size="30.0" fill="#5A544B" transform="matrix(1.00, 0.00, -0.00, -1.00, 156.7, 10.0)">e</text><text xml:space="preserve" font-family="CourierNewPSMT,Courier New" font-size="30.0" fill="#5A544B" transform="matrix(1.00, 0.00, -0.00, -1.00, 174.7, 10.0)">s</text><text xml:space="preserve" font-family="CourierNewPSMT,Courier New" font-size="30.0" fill="#5A544B" transform="matrix(1.00, 0.00, -0.00, -1.00, 192.7, 10.0)">c</text><text xml:space="preserve" font-family="CourierNewPSMT,Courier New" font-size="30.0" fill="#5A544B" transform="matrix(1.00, 0.00, -0.00, -1.00, 210.7, 10.0)">r</text><text xml:space="preserve" font-family="CourierNewPSMT,Courier New" font-size="30.0" fill="#5A544B" transform="matrix(1.00, 0.00, -0.00, -1.00, 228.7, 10.0)">i</text><text xml:space="preserve" font-family="CourierNewPSMT,Courier New" font-size="30.0" fill="#5A544B" transform="matrix(1.00, 0.00, -0.00, -1.00, 246.8, 10.0)">p</text><text xml:space="preserve" font-family="CourierNewPSMT,Courier New" font-size="30.0" fill="#5A544B" transform="matrix(1.00, 0.00, -0.00, -1.00, 264.8, 10.0)">t</text><text xml:space="preserve" font-family="CourierNewPSMT,Courier New" font-size="30.0" fill="#5A544B" transform="matrix(1.00, 0.00, -0.00, -1.00, 282.8, 10.0)">i</text><text xml:space="preserve" font-family="CourierNewPSMT,Courier New" font-size="30.0" fill="#5A544B" transform="matrix(1.00, 0.00, -0.00, -1.00, 300.8, 10.0)">o</text><text xml:space="preserve" font-family="CourierNewPSMT,Courier New" font-size="30.0" fill="#5A544B" transform="matrix(1.00, 0.00, -0.00, -1.00, 318.8, 10.0)">n</text><text xml:space="preserve" font-family="CourierNewPSMT,Courier New" font-size="30.0" fill="#5A544B" transform="matrix(1.00, 0.00, -0.00, -1.00, 336.7, 10.0)"> </text><text xml:space="preserve" font-family="CourierNewPSMT,Courier New" font-size="30.0" fill="#5A544B" transform="matrix(1.00, 0.00, -0.00, -1.00, 368.7, 10.0)"> </text><text xml:space="preserve" font-family="CourierNewPSMT,Courier New" font-size="30.0" fill="#5A544B" transform="matrix(1.00, 0.00, -0.00, -1.00, 414.7, 10.0)"> </text><text xml:space="preserve" font-family="CourierNewPSMT,Courier New" font-size="30.0" fill="#5A544B" transform="matrix(1.00, 0.00, -0.00, -1.00, 460.7, 10.0)"> </text><text xml:space="preserve" font-family="CourierNewPSMT,Courier New" font-size="30.0" fill="#5A544B" transform="matrix(1.00, 0.00, -0.00, -1.00, 506.7, 10.0)">A</text><text xml:space="preserve" font-family="CourierNewPSMT,Courier New" font-size="30.0" fill="#5A544B" transform="matrix(1.00, 0.00, -0.00, -1.00, 524.7, 10.0)">m</text><text xml:space="preserve" font-family="CourierNewPSMT,Courier New" font-size="30.0" fill="#5A544B" transform="matrix(1.00, 0.00, -0.00, -1.00, 542.7, 10.0)">o</text><text xml:space="preserve" font-family="CourierNewPSMT,Courier New" font-size="30.0" fill="#5A544B" transform="matrix(1.00, 0.00, -0.00, -1.00, 560.7, 10.0)">u</text><text xml:space="preserve" font-family="CourierNewPSMT,Courier New" font-size="30.0" fill="#5A544B" transform="matrix(1.00, 0.00, -0.00, -1.00, 578.7, 10.0)">n</text><text xml:space="preserve" font-family="CourierNewPSMT,Courier New" font-size="30.0" fill="#5A544B" transform="matrix(1.00, 0.00, -0.00, -1.00, 596.7, 10.0)">t</text><g><clipPath id="clip0x600001cb2420"><path d="M -0.3 1.4 L 72.7 1.4 L 72.7 4.6 L -0.3 4.6 Z M -0.3 1.4 "></path></clipPath><g clip-path="url(#clip0x600001cb2420)"><path d="M 4.0 138.0 L 76.0 138.0 " fill="none" stroke="#5A544B" stroke-width="1.23" transform="matrix(1.00, 0.00, 0.00, -1.00, -3.3, 141.0)"></path></g></g><g><clipPath id="clip0x600001cb2660"><path d="M 137.7 1.4 L 336.7 1.4 L 336.7 4.6 L 137.7 4.6 Z M 137.7 1.4 "></path></clipPath><g clip-path="url(#clip0x600001cb2660)"><path d="M 142.0 138.0 L 340.0 138.0 " fill="none" stroke="#5A544B" stroke-width="1.23" transform="matrix(1.00, 0.00, 0.00, -1.00, -3.3, 141.0)"></path></g></g><g><clipPath id="clip0x600001cb28a0"><path d="M 505.7 1.4 L 614.7 1.4 L 614.7 4.6 L 505.7 4.6 Z M 505.7 1.4 "></path></clipPath><g clip-path="url(#clip0x600001cb28a0)"><path d="M 510.0 138.0 L 618.0 138.0 " fill="none" stroke="#5A544B" stroke-width="1.23" transform="matrix(1.00, 0.00, 0.00, -1.00, -3.3, 141.0)"></path></g></g></g></svg>