<?xml version="1.0" encoding="UTF-8" standalone="no"?><svg xmlns="http://www.w3.org/2000/svg" xmlns:xlink="http://www.w3.org/1999/xlink" clip-rule="evenodd" stroke-miterlimit="10" viewBox="0 0 889 56"><desc>SVG generated by Keynote</desc><defs></defs><g transform="matrix(1.00, 0.00, -0.00, -1.00, 0.0, 56.0)"><text xml:space="preserve" font-family="AvenirNextCondensed-Heavy,Avenir Next Condensed" font-weight="bold" font-size="40.0" fill="#5CBAED" transform="matrix(1.00, 0.00, -0.00, -1.00, 0.5, 15.1)">M</text><text xml:space="preserve" font-family="AvenirNextCondensed-Heavy,Avenir Next Condensed" font-weight="bold" font-size="40.0" fill="#5CBAED" transform="matrix(1.00, 0.00, -0.00, -1.00, 32.8, 15.1)">r</text><text xml:space="preserve" font-family="AvenirNextCondensed-Heavy,Avenir Next Condensed" font-weight="bold" font-size="40.0" fill="#5CBAED" transform="matrix(1.00, 0.00, -0.00, -1.00, 46.9, 15.1)">.</text><text xml:space="preserve" font-family="AvenirNextCondensed-Heavy,Avenir Next Condensed" font-weight="bold" font-size="40.0" fill="#5CBAED" transform="matrix(1.00, 0.00, -0.00, -1.00, 57.7, 15.1)"> </text><text xml:space="preserve" font-family="AvenirNextCondensed-Heavy,Avenir Next Condensed" font-weight="bold" font-size="40.0" fill="#5CBAED" transform="matrix(1.00, 0.00, -0.00, -1.00, 65.7, 15.1)">S</text><text xml:space="preserve" font-family="AvenirNextCondensed-Heavy,Avenir Next Condensed" font-weight="bold" font-size="40.0" fill="#5CBAED" transform="matrix(1.00, 0.00, -0.00, -1.00, 84.8, 15.1)">-</text><text xml:space="preserve" font-family="AvenirNextCondensed-Heavy,Avenir Next Condensed" font-weight="bold" font-size="40.0" fill="#5CBAED" transform="matrix(1.00, 0.00, -0.00, -1.00, 95.2, 15.1)">K</text><text xml:space="preserve" font-family="AvenirNextCondensed-Heavy,Avenir Next Condensed" font-weight="bold" font-size="40.0" fill="#5CBAED" transform="matrix(1.00, 0.00, -0.00, -1.00, 120.1, 15.1)">’</text><text xml:space="preserve" font-family="AvenirNextCondensed-Heavy,Avenir Next Condensed" font-weight="bold" font-size="40.0" fill="#5CBAED" transform="matrix(1.00, 0.00, -0.00, -1.00, 128.7, 15.1)">s</text><text xml:space="preserve" font-family="AvenirNextCondensed-Heavy,Avenir Next Condensed" font-weight="bold" font-size="40.0" fill="#5CBAED" transform="matrix(1.00, 0.00, -0.00, -1.00, 146.0, 15.1)"> </text><text xml:space="preserve" font-family="AvenirNextCondensed-Heavy,Avenir Next Condensed" font-weight="bold" font-size="40.0" fill="#5CBAED" transform="matrix(1.00, 0.00, -0.00, -1.00, 153.3, 15.1)">A</text><text xml:space="preserve" font-family="AvenirNextCondensed-Heavy,Avenir Next Condensed" font-weight="bold" font-size="40.0" fill="#5CBAED" transform="matrix(1.00, 0.00, -0.00, -1.00, 177.1, 15.1)">p</text><text xml:space="preserve" font-family="AvenirNextCondensed-Heavy,Avenir Next Condensed" font-weight="bold" font-size="40.0" fill="#5CBAED" transform="matrix(1.00, 0.00, -0.00, -1.00, 199.4, 15.1)">r</text><text xml:space="preserve" font-family="AvenirNextCondensed-Heavy,Avenir Next Condensed" font-weight="bold" font-size="40.0" fill="#5CBAED" transform="matrix(1.00, 0.00, -0.00, -1.00, 214.6, 15.1)">i</text><text xml:space="preserve" font-family="AvenirNextCondensed-Heavy,Avenir Next Condensed" font-weight="bold" font-size="40.0" fill="#5CBAED" transform="matrix(1.00, 0.00, -0.00, -1.00, 226.7, 15.1)">l</text><text xml:space="preserve" font-family="AvenirNextCondensed-Heavy,Avenir Next Condensed" font-weight="bold" font-size="40.0" fill="#5CBAED" transform="matrix(1.00, 0.00, -0.00, -1.00, 239.1, 15.1)"> </text><text xml:space="preserve" font-family="AvenirNextCondensed-Heavy,Avenir Next Condensed" font-weight="bold" font-size="40.0" fill="#5CBAED" transform="matrix(1.00, 0.00, -0.00, -1.00, 247.1, 15.1)">1</text><text xml:space="preserve" font-family="AvenirNextCondensed-Heavy,Avenir Next Condensed" font-weight="bold" font-size="40.0" fill="#5CBAED" transform="matrix(1.00, 0.00, -0.00, -1.00, 269.5, 15.1)">s</text><text xml:space="preserve" font-family="AvenirNextCondensed-Heavy,Avenir Next Condensed" font-weight="bold" font-size="40.0" fill="#5CBAED" transform="matrix(1.00, 0.00, -0.00, -1.00, 286.8, 15.1)">t</text><text xml:space="preserve" font-family="AvenirNextCondensed-Heavy,Avenir Next Condensed" font-weight="bold" font-size="40.0" fill="#5CBAED" transform="matrix(1.00, 0.00, -0.00, -1.00, 300.7, 15.1)"> </text><text xml:space="preserve" font-family="AvenirNextCondensed-Heavy,Avenir Next Condensed" font-weight="bold" font-size="40.0" fill="#5CBAED" transform="matrix(1.00, 0.00, -0.00, -1.00, 308.7, 15.1)">P</text><text xml:space="preserve" font-family="AvenirNextCondensed-Heavy,Avenir Next Condensed" font-weight="bold" font-size="40.0" fill="#5CBAED" transform="matrix(1.00, 0.00, -0.00, -1.00, 330.0, 15.1)">a</text><text xml:space="preserve" font-family="AvenirNextCondensed-Heavy,Avenir Next Condensed" font-weight="bold" font-size="40.0" fill="#5CBAED" transform="matrix(1.00, 0.00, -0.00, -1.00, 349.4, 15.1)">y</text><text xml:space="preserve" font-family="AvenirNextCondensed-Heavy,Avenir Next Condensed" font-weight="bold" font-size="40.0" fill="#5CBAED" transform="matrix(1.00, 0.00, -0.00, -1.00, 370.6, 15.1)">c</text><text xml:space="preserve" font-family="AvenirNextCondensed-Heavy,Avenir Next Condensed" font-weight="bold" font-size="40.0" fill="#5CBAED" transform="matrix(1.00, 0.00, -0.00, -1.00, 385.7, 15.1)">h</text><text xml:space="preserve" font-family="AvenirNextCondensed-Heavy,Avenir Next Condensed" font-weight="bold" font-size="40.0" fill="#5CBAED" transform="matrix(1.00, 0.00, -0.00, -1.00, 408.6, 15.1)">e</text><text xml:space="preserve" font-family="AvenirNextCondensed-Heavy,Avenir Next Condensed" font-weight="bold" font-size="40.0" fill="#5CBAED" transform="matrix(1.00, 0.00, -0.00, -1.00, 428.5, 15.1)">c</text><text xml:space="preserve" font-family="AvenirNextCondensed-Heavy,Avenir Next Condensed" font-weight="bold" font-size="40.0" fill="#5CBAED" transform="matrix(1.00, 0.00, -0.00, -1.00, 443.5, 15.1)">k</text><text xml:space="preserve" font-family="AvenirNextCondensed-Heavy,Avenir Next Condensed" font-weight="bold" font-size="40.0" fill="#5CBAED" transform="matrix(1.00, 0.00, -0.00, -1.00, 465.4, 15.1)"> </text><text xml:space="preserve" font-family="AvenirNextCondensed-Heavy,Avenir Next Condensed" font-weight="bold" font-size="40.0" fill="#5CBAED" transform="matrix(1.00, 0.00, -0.00, -1.00, 473.4, 15.1)">(</text><text xml:space="preserve" font-family="AvenirNextCondensed-Heavy,Avenir Next Condensed" font-weight="bold" font-size="40.0" fill="#5CBAED" transform="matrix(1.00, 0.00, -0.00, -1.00, 485.4, 15.1)">N</text><text xml:space="preserve" font-family="AvenirNextCondensed-Heavy,Avenir Next Condensed" font-weight="bold" font-size="40.0" fill="#5CBAED" transform="matrix(1.00, 0.00, -0.00, -1.00, 510.6, 15.1)">o</text><text xml:space="preserve" font-family="AvenirNextCondensed-Heavy,Avenir Next Condensed" font-weight="bold" font-size="40.0" fill="#5CBAED" transform="matrix(1.00, 0.00, -0.00, -1.00, 531.6, 15.1)">t</text><text xml:space="preserve" font-family="AvenirNextCondensed-Heavy,Avenir Next Condensed" font-weight="bold" font-size="40.0" fill="#5CBAED" transform="matrix(1.00, 0.00, -0.00, -1.00, 545.6, 15.1)"> </text><text xml:space="preserve" font-family="AvenirNextCondensed-Heavy,Avenir Next Condensed" font-weight="bold" font-size="40.0" fill="#5CBAED" transform="matrix(1.00, 0.00, -0.00, -1.00, 553.6, 15.1)">a</text><text xml:space="preserve" font-family="AvenirNextCondensed-Heavy,Avenir Next Condensed" font-weight="bold" font-size="40.0" fill="#5CBAED" transform="matrix(1.00, 0.00, -0.00, -1.00, 573.0, 15.1)">n</text><text xml:space="preserve" font-family="AvenirNextCondensed-Heavy,Avenir Next Condensed" font-weight="bold" font-size="40.0" fill="#5CBAED" transform="matrix(1.00, 0.00, -0.00, -1.00, 595.9, 15.1)"> </text><text xml:space="preserve" font-family="AvenirNextCondensed-Heavy,Avenir Next Condensed" font-weight="bold" font-size="40.0" fill="#5CBAED" transform="matrix(1.00, 0.00, -0.00, -1.00, 603.2, 15.1)">A</text><text xml:space="preserve" font-family="AvenirNextCondensed-Heavy,Avenir Next Condensed" font-weight="bold" font-size="40.0" fill="#5CBAED" transform="matrix(1.00, 0.00, -0.00, -1.00, 627.0, 15.1)">p</text><text xml:space="preserve" font-family="AvenirNextCondensed-Heavy,Avenir Next Condensed" font-weight="bold" font-size="40.0" fill="#5CBAED" transform="matrix(1.00, 0.00, -0.00, -1.00, 649.3, 15.1)">r</text><text xml:space="preserve" font-family="AvenirNextCondensed-Heavy,Avenir Next Condensed" font-weight="bold" font-size="40.0" fill="#5CBAED" transform="matrix(1.00, 0.00, -0.00, -1.00, 664.5, 15.1)">i</text><text xml:space="preserve" font-family="AvenirNextCondensed-Heavy,Avenir Next Condensed" font-weight="bold" font-size="40.0" fill="#5CBAED" transform="matrix(1.00, 0.00, -0.00, -1.00, 676.6, 15.1)">l</text><text xml:space="preserve" font-family="AvenirNextCondensed-Heavy,Avenir Next Condensed" font-weight="bold" font-size="40.0" fill="#5CBAED" transform="matrix(1.00, 0.00, -0.00, -1.00, 689.0, 15.1)"> </text><text xml:space="preserve" font-family="AvenirNextCondensed-Heavy,Avenir Next Condensed" font-weight="bold" font-size="40.0" fill="#5CBAED" transform="matrix(1.00, 0.00, -0.00, -1.00, 697.0, 15.1)">F</text><text xml:space="preserve" font-family="AvenirNextCondensed-Heavy,Avenir Next Condensed" font-weight="bold" font-size="40.0" fill="#5CBAED" transform="matrix(1.00, 0.00, -0.00, -1.00, 714.5, 15.1)">o</text><text xml:space="preserve" font-family="AvenirNextCondensed-Heavy,Avenir Next Condensed" font-weight="bold" font-size="40.0" fill="#5CBAED" transform="matrix(1.00, 0.00, -0.00, -1.00, 735.5, 15.1)">o</text><text xml:space="preserve" font-family="AvenirNextCondensed-Heavy,Avenir Next Condensed" font-weight="bold" font-size="40.0" fill="#5CBAED" transform="matrix(1.00, 0.00, -0.00, -1.00, 756.5, 15.1)">l</text><text xml:space="preserve" font-family="AvenirNextCondensed-Heavy,Avenir Next Condensed" font-weight="bold" font-size="40.0" fill="#5CBAED" transform="matrix(1.00, 0.00, -0.00, -1.00, 768.9, 15.1)">s</text><text xml:space="preserve" font-family="AvenirNextCondensed-Heavy,Avenir Next Condensed" font-weight="bold" font-size="40.0" fill="#5CBAED" transform="matrix(1.00, 0.00, -0.00, -1.00, 786.2, 15.1)"> </text><text xml:space="preserve" font-family="AvenirNextCondensed-Heavy,Avenir Next Condensed" font-weight="bold" font-size="40.0" fill="#5CBAED" transform="matrix(1.00, 0.00, -0.00, -1.00, 793.7, 15.1)">J</text><text xml:space="preserve" font-family="AvenirNextCondensed-Heavy,Avenir Next Condensed" font-weight="bold" font-size="40.0" fill="#5CBAED" transform="matrix(1.00, 0.00, -0.00, -1.00, 813.1, 15.1)">o</text><text xml:space="preserve" font-family="AvenirNextCondensed-Heavy,Avenir Next Condensed" font-weight="bold" font-size="40.0" fill="#5CBAED" transform="matrix(1.00, 0.00, -0.00, -1.00, 834.2, 15.1)">k</text><text xml:space="preserve" font-family="AvenirNextCondensed-Heavy,Avenir Next Condensed" font-weight="bold" font-size="40.0" fill="#5CBAED" transform="matrix(1.00, 0.00, -0.00, -1.00, 855.6, 15.1)">e</text><text xml:space="preserve" font-family="AvenirNextCondensed-Heavy,Avenir Next Condensed" font-weight="bold" font-size="40.0" fill="#5CBAED" transform="matrix(1.00, 0.00, -0.00, -1.00, 875.5, 15.1)">)</text><g><clipPath id="clip0x6180010a7440"><path d="M -0.5 10.1 L 887.5 10.1 L 887.5 14.1 L -0.5 14.1 Z M -0.5 10.1 "></path></clipPath><g clip-path="url(#clip0x6180010a7440)"><path d="M 4.5 47.4 L 891.4 47.4 " fill="none" stroke="#5CBAED" stroke-width="2.00" transform="matrix(1.00, 0.00, 0.00, -1.00, -4.0, 59.5)"></path></g></g></g></svg>