<?xml version="1.0" encoding="UTF-8" standalone="no"?><svg xmlns="http://www.w3.org/2000/svg" xmlns:xlink="http://www.w3.org/1999/xlink" clip-rule="evenodd" stroke-miterlimit="10" viewBox="0 0 612 23"><desc>SVG generated by Keynote</desc><defs></defs><g transform="matrix(1.00, 0.00, -0.00, -1.00, 0.0, 23.0)"><text xml:space="preserve" font-family="CourierNewPSMT,Courier New" font-size="30.0" fill="#5A544B" transform="matrix(1.00, 0.00, -0.00, -1.00, -1.3, 3.0)">7</text><text xml:space="preserve" font-family="CourierNewPSMT,Courier New" font-size="30.0" fill="#5A544B" transform="matrix(1.00, 0.00, -0.00, -1.00, 16.7, 3.0)">7</text><text xml:space="preserve" font-family="CourierNewPSMT,Courier New" font-size="30.0" fill="#5A544B" transform="matrix(1.00, 0.00, -0.00, -1.00, 34.7, 3.0)">2</text><text xml:space="preserve" font-family="CourierNewPSMT,Courier New" font-size="30.0" fill="#5A544B" transform="matrix(1.00, 0.00, -0.00, -1.00, 52.7, 3.0)">6</text><text xml:space="preserve" font-family="CourierNewPSMT,Courier New" font-size="30.0" fill="#5A544B" transform="matrix(1.00, 0.00, -0.00, -1.00, 70.7, 3.0)"> </text><text xml:space="preserve" font-family="CourierNewPSMT,Courier New" font-size="30.0" fill="#5A544B" transform="matrix(1.00, 0.00, -0.00, -1.00, 90.7, 3.0)"> </text><text xml:space="preserve" font-family="CourierNewPSMT,Courier New" font-size="30.0" fill="#5A544B" transform="matrix(1.00, 0.00, -0.00, -1.00, 136.7, 3.0)">U</text><text xml:space="preserve" font-family="CourierNewPSMT,Courier New" font-size="30.0" fill="#5A544B" transform="matrix(1.00, 0.00, -0.00, -1.00, 154.7, 3.0)">F</text><text xml:space="preserve" font-family="CourierNewPSMT,Courier New" font-size="30.0" fill="#5A544B" transform="matrix(1.00, 0.00, -0.00, -1.00, 172.7, 3.0)">T</text><text xml:space="preserve" font-family="CourierNewPSMT,Courier New" font-size="30.0" fill="#5A544B" transform="matrix(1.00, 0.00, -0.00, -1.00, 190.7, 3.0)"> </text><text xml:space="preserve" font-family="CourierNewPSMT,Courier New" font-size="30.0" fill="#5A544B" transform="matrix(1.00, 0.00, -0.00, -1.00, 228.7, 3.0)"> </text><text xml:space="preserve" font-family="CourierNewPSMT,Courier New" font-size="30.0" fill="#5A544B" transform="matrix(1.00, 0.00, -0.00, -1.00, 246.7, 3.0)"> </text><text xml:space="preserve" font-family="CourierNewPSMT,Courier New" font-size="30.0" fill="#5A544B" transform="matrix(1.00, 0.00, -0.00, -1.00, 274.7, 3.0)"> </text><text xml:space="preserve" font-family="CourierNewPSMT,Courier New" font-size="30.0" fill="#5A544B" transform="matrix(1.00, 0.00, -0.00, -1.00, 320.7, 3.0)"> </text><text xml:space="preserve" font-family="CourierNewPSMT,Courier New" font-size="30.0" fill="#5A544B" transform="matrix(1.00, 0.00, -0.00, -1.00, 366.7, 3.0)"> </text><text xml:space="preserve" font-family="CourierNewPSMT,Courier New" font-size="30.0" fill="#5A544B" transform="matrix(1.00, 0.00, -0.00, -1.00, 412.7, 3.0)"> </text><text xml:space="preserve" font-family="CourierNewPSMT,Courier New" font-size="30.0" fill="#5A544B" transform="matrix(1.00, 0.00, -0.00, -1.00, 458.7, 3.0)"> </text><text xml:space="preserve" font-family="CourierNewPSMT,Courier New" font-size="30.0" fill="#5A544B" transform="matrix(1.00, 0.00, -0.00, -1.00, 504.7, 3.0)">5</text><text xml:space="preserve" font-family="CourierNewPSMT,Courier New" font-size="30.0" fill="#5A544B" transform="matrix(1.00, 0.00, -0.00, -1.00, 522.7, 3.0)">0</text><text xml:space="preserve" font-family="CourierNewPSMT,Courier New" font-size="30.0" fill="#5A544B" transform="matrix(1.00, 0.00, -0.00, -1.00, 540.7, 3.0)">.</text><text xml:space="preserve" font-family="CourierNewPSMT,Courier New" font-size="30.0" fill="#5A544B" transform="matrix(1.00, 0.00, -0.00, -1.00, 558.7, 3.0)">7</text><text xml:space="preserve" font-family="CourierNewPSMT,Courier New" font-size="30.0" fill="#5A544B" transform="matrix(1.00, 0.00, -0.00, -1.00, 576.7, 3.0)">3</text><text xml:space="preserve" font-family="CourierNewPSMT,Courier New" font-size="30.0" fill="#5A544B" transform="matrix(1.00, 0.00, -0.00, -1.00, 594.7, 3.0)">-</text></g></svg>