
<svg width="324px" height="110px" viewBox="0 0 324 110" version="1.1" xmlns="http://www.w3.org/2000/svg" xmlns:xlink="http://www.w3.org/1999/xlink">
    <!-- Generator: Sketch 3.8.3 (29802) - http://www.bohemiancoding.com/sketch -->
    <desc>Created with Sketch.</desc>
    <defs></defs>
    <path d="M58.403,41.832 C66.879,41.832 72.079,37.204 72.079,31.328 C72.079,27.012 68.699,24.308 64.903,22.124 C68.907,19.992 71.299,17.288 71.299,13.18 C71.299,7.772 66.047,4.392 59.495,4.392 C51.123,4.392 46.651,9.488 46.651,14.532 C46.651,18.432 49.459,21.084 52.839,23.268 C48.679,25.608 46.131,28.624 46.131,32.68 C46.131,38.244 51.383,41.832 58.403,41.832 L58.403,41.832 Z M54.451,13.7 C54.451,12.088 56.011,10.684 58.975,10.684 C62.251,10.684 63.655,12.4 63.655,14.74 C63.655,16.612 62.563,18.432 60.639,19.784 C57.259,18.016 54.451,16.248 54.451,13.7 L54.451,13.7 Z M59.183,35.54 C55.439,35.54 53.931,33.616 53.931,31.016 C53.931,28.988 55.023,27.064 56.947,25.66 C60.743,27.792 64.175,29.664 64.175,32.264 C64.175,34.136 62.199,35.54 59.183,35.54 L59.183,35.54 Z" id="8" stroke="none" fill="#000000" fill-rule="evenodd"></path>
    <path d="M86.717,41.208 L87.107,37.776 C83.675,37.672 82.583,37.256 82.583,35.228 L82.583,29.69 L86.873,29.69 L86.873,26.362 L82.583,26.362 L82.583,22.202 L78.449,22.566 L78.449,26.362 L76.343,26.362 L76.005,29.69 L78.449,29.69 L78.449,35.878 C78.449,39.83 80.321,41.39 86.717,41.208 L86.717,41.208 Z M96.935,29.56 C98.261,29.56 99.119,30.21 99.119,32.524 L99.119,41 L103.253,41 L103.253,30.964 C103.253,27.428 101.563,25.946 98.911,25.946 C97.039,25.946 95.635,26.648 94.517,27.558 L94.517,20.382 L90.383,20.72 L90.383,41 L94.517,41 L94.517,30.184 C95.245,29.794 96.025,29.56 96.935,29.56 L96.935,29.56 Z" id="th" stroke="none" fill="#000000" fill-rule="evenodd"></path>
    <path d="M136.637,40.48 C136.637,35.8 136.585,30.392 136.585,23.112 L128.629,23.112 C128.681,26.648 128.837,31.432 128.941,34.864 C120.569,34.5 116.721,30.288 116.721,22.8 C116.721,15.364 119.009,12.244 134.765,12.92 L134.245,4.6 C114.277,4.756 108.037,13.752 108.037,24.1 C108.037,37.204 118.541,44.328 136.637,40.48 L136.637,40.48 Z M164.405,41 L165.029,34.76 L157.697,34.76 C157.593,29.196 157.541,25.192 157.437,21.5 C160.557,20.356 164.041,19.68 167.889,19.524 L167.733,10.476 C162.949,11.204 159.361,13.7 157.021,16.82 L156.449,11.724 L143.813,11.724 L143.241,17.756 L149.169,18.172 C149.325,22.644 149.377,27.792 149.481,34.76 L143.397,34.76 L143.397,41 L164.405,41 Z M184.269,35.384 C181.981,35.384 180.525,34.188 180.525,32.108 C180.525,29.612 181.825,28.26 189.053,28.988 C189.053,30.86 189.105,32.524 189.157,33.928 C187.545,34.864 185.829,35.384 184.269,35.384 L184.269,35.384 Z M190.093,41.208 L197.685,40.792 C197.373,36.892 197.061,31.744 197.061,26.544 C197.061,14.896 192.953,11.152 174.753,11.1 L174.025,18.172 C185.881,18.484 188.585,19.472 188.949,23.788 C177.509,23.58 172.621,28.416 172.621,34.084 C172.621,38.816 176.001,41.728 180.889,41.728 C184.737,41.728 187.545,40.012 189.521,37.932 L190.093,41.208 Z M217.757,34.916 C214.429,34.916 211.621,32.004 211.621,25.972 C211.621,20.668 213.805,18.12 217.601,18.12 C218.745,18.12 220.045,18.328 221.449,18.744 C221.501,24.672 221.553,29.82 221.657,33.72 C220.357,34.5 219.005,34.916 217.757,34.916 L217.757,34.916 Z M222.593,41.208 L230.185,40.792 C229.769,34.604 229.665,25.816 229.665,11.412 L229.665,0.18 L221.449,0.856 L221.449,10.892 C211.309,10.892 203.457,17.08 203.457,28 C203.457,36.424 208.293,41.832 214.377,41.832 C217.601,41.832 220.201,40.324 222.125,38.4 L222.593,41.208 Z M260.553,41.676 L261.281,34.76 C249.841,34.552 245.681,33.304 244.797,28.572 L261.905,28.156 C262.945,17.392 259.201,10.892 250.933,10.892 C243.289,10.892 236.581,17.86 236.581,27.064 C236.581,36.632 241.313,42.248 260.553,41.676 L260.553,41.676 Z M249.477,17.756 C252.597,17.756 253.845,19.836 254.053,23.528 C251.193,23.58 247.241,23.684 244.641,23.788 C244.901,19.316 246.461,17.756 249.477,17.756 L249.477,17.756 Z" id="Grade" stroke="none" fill="#000000" fill-rule="evenodd"></path>
    <path d="M15.896,90.14 C15.308,86.416 13.768,84.372 10.296,84.372 C6.124,84.372 3.044,87.312 3.044,90.504 C3.044,94.984 9.54,96.776 9.54,99.1 C9.54,100.36 7.58,101.116 1.672,99.436 L0.776,103.692 C10.352,105.736 14.244,102.236 14.244,98.904 C14.244,94.732 7.524,92.632 7.524,90 C7.524,88.992 8.336,88.152 9.512,88.152 C10.8,88.152 11.612,88.992 12.088,90.952 L15.896,90.14 Z M17.296,97.868 C17.296,101.984 19.732,104.448 23.456,104.448 C28.16,104.448 32.472,99.772 32.472,94.34 C32.472,90.196 30.008,87.76 26.312,87.76 C21.608,87.76 17.296,92.436 17.296,97.868 L17.296,97.868 Z M28.02,94.984 C28.02,97.868 26.592,100.864 24.268,100.864 C22.672,100.864 21.748,99.52 21.748,97.224 C21.748,94.34 23.148,91.344 25.5,91.344 C27.096,91.344 28.02,92.688 28.02,94.984 L28.02,94.984 Z M46.388,103.076 C46.388,101.032 45.604,98.932 43.532,96.972 L48.432,97.112 L49.076,93.612 L41.096,93.668 C42.356,89.692 44.344,86.668 46.052,86.668 C47.62,86.668 47.592,88.516 46.472,90.532 L48.348,91.148 C51.876,86.5 51.652,82.048 47.872,82.048 C43.728,82.048 39.304,87.228 37.036,93.696 L35.244,93.696 L34.6,96.58 L36.056,97.056 C35.692,98.764 35.496,100.528 35.496,102.264 C35.496,106.996 37.428,109.544 40.312,109.544 C43.504,109.544 46.388,106.828 46.388,103.076 L46.388,103.076 Z M42.02,106.156 C40.732,106.156 39.808,105.036 39.808,101.76 C39.808,100.528 39.92,99.268 40.088,98.036 C42.552,99.884 43.588,102.012 43.588,103.944 C43.588,105.176 43.084,106.156 42.02,106.156 L42.02,106.156 Z M62.796,102.348 L62.6,100.192 C57.448,101.284 56.72,100.668 57.252,98.204 L58.68,91.708 L63.468,91.708 L64.084,88.348 L59.408,88.348 L60.416,83.784 L57.112,84.008 L54.172,88.348 L52.52,88.348 L51.736,91.708 L54.368,91.708 L52.912,98.456 C51.764,103.804 55.068,106.688 62.796,102.348 L62.796,102.348 Z M74.36,104 L78.588,104 C81.416,97.448 82.9,93.108 84.216,88.236 L79.652,88.236 C78.924,91.932 78.364,94.48 77.132,98.82 L76.908,98.82 L76.068,92.464 L73.688,92.464 L70.272,98.792 L70.132,98.792 C70.692,94.648 71.084,92.016 71.644,88.236 L67.248,88.236 C66.464,94.284 65.96,100.892 66.128,104 L70.244,104 L73.52,97.7 L74.36,104 Z M90.684,100.276 C89.872,100.276 89.312,99.604 89.312,98.12 C89.312,95.152 90.908,91.54 92.84,91.54 C93.4,91.54 94.352,91.708 95.388,91.988 C94.94,94.228 94.38,97.168 94.1,98.596 C92.84,99.576 91.524,100.276 90.684,100.276 L90.684,100.276 Z M100.988,102.516 L100.624,100.332 C98.02,100.836 97.936,100.752 98.16,99.604 L100.26,88.684 C98.608,88.18 96.816,87.9 95.304,87.9 C88.78,87.9 84.888,93.752 84.888,99.492 C84.888,102.824 86.372,104.42 88.276,104.42 C89.928,104.42 91.972,103.132 93.764,101.48 C93.568,104.588 95.472,105.512 100.988,102.516 L100.988,102.516 Z M117.536,102.908 L117.34,100.696 C113.476,101.564 112.832,101.2 117.984,89.02 L115.884,88.096 C114.596,88.768 112.776,89.412 110.984,89.804 C111.012,89.636 111.012,89.44 111.012,89.272 C111.012,87.928 110.2,87.144 108.968,87.144 C106.672,87.144 104.432,89.328 104.432,91.232 C104.432,92.352 105.244,92.996 106.476,93.304 C105.58,94.788 104.292,96.328 102.612,98.204 L104.124,99.828 C106.448,97.616 108.324,95.46 109.528,93.5 C110.424,93.444 111.32,93.276 112.216,93.08 C107.372,103.86 109.752,106.492 117.536,102.908 L117.536,102.908 Z M133.048,102.152 L132.74,99.912 C126.16,101.172 124.284,100.78 124.088,98.232 C130.64,97.7 133.916,95.46 133.916,91.904 C133.916,89.384 132.208,87.76 129.408,87.76 C124.172,87.76 119.888,93.22 119.888,98.512 C119.888,103.384 123.892,106.828 133.048,102.152 L133.048,102.152 Z M128.176,91.316 C129.24,91.316 129.828,91.932 129.828,92.884 C129.828,94.592 127.868,95.572 124.256,95.852 C124.788,93.472 126.272,91.316 128.176,91.316 L128.176,91.316 Z M156.792,100.22 L149.176,100.22 L150.016,95.88 L156.232,95.88 L156.848,92.8 L150.604,92.8 L151.416,88.488 L158.864,88.488 L159.592,84.736 L147.636,84.736 L143.884,104 L155.728,104 L156.792,100.22 Z M177.568,102.516 L177.26,100.332 C174.936,100.836 174.684,100.78 174.684,100.248 C174.684,98.82 176.588,94.032 176.588,90.98 C176.588,89.244 175.86,87.788 173.424,87.788 C171.436,87.788 169.28,88.852 167.18,90.896 L167.544,88.096 L163.26,88.348 C162.644,92.996 161.944,96.524 160.488,104 L164.772,104 L166.76,94.032 C168.216,92.632 169.504,91.96 170.596,91.96 C171.576,91.96 171.884,92.492 171.884,93.332 C171.884,95.376 170.092,99.716 170.092,102.096 C170.092,104.7 172.472,105.26 177.568,102.516 L177.568,102.516 Z M185.8,99.128 C184.792,99.128 184.064,98.456 184.064,96.888 C184.064,94.508 185.436,91.344 187.312,91.344 C187.816,91.344 188.712,91.568 189.804,92.128 C189.16,93.864 188.656,95.908 188.488,97.868 C187.536,98.652 186.64,99.128 185.8,99.128 L185.8,99.128 Z M192.268,105.708 C193.276,103.72 192.24,101.172 192.268,97.672 C194.256,94.508 195.768,90.728 195.768,89.104 C195.768,88.376 194.004,87.676 192.912,87.676 C192.576,87.676 192.184,87.956 191.792,88.432 C190.924,88.04 190.056,87.816 189.132,87.816 C183.448,87.816 179.808,93.136 179.808,98.26 C179.808,101.508 181.488,103.02 183.532,103.02 C185.268,103.02 187.004,102.012 188.544,100.612 C188.712,102.488 189.048,104.224 188.628,104.644 C187.984,105.288 184.876,105.512 179.92,105.204 L179.5,109.32 C187.144,109.6 191.064,108.144 192.268,105.708 L192.268,105.708 Z M206.184,85.828 L207.528,81.432 L202.488,81.656 L201.452,86.052 L206.184,85.828 Z M207.304,102.32 L207.024,100.08 C202.768,100.948 202.516,100.892 203.132,98.176 L205.428,88.068 L201.172,88.32 L198.036,92.38 L199.968,93.64 L198.68,99.044 C197.42,104.252 200.248,106.184 207.304,102.32 L207.304,102.32 Z M225.756,102.516 L225.448,100.332 C223.124,100.836 222.872,100.78 222.872,100.248 C222.872,98.82 224.776,94.032 224.776,90.98 C224.776,89.244 224.048,87.788 221.612,87.788 C219.624,87.788 217.468,88.852 215.368,90.896 L215.732,88.096 L211.448,88.348 C210.832,92.996 210.132,96.524 208.676,104 L212.96,104 L214.948,94.032 C216.404,92.632 217.692,91.96 218.784,91.96 C219.764,91.96 220.072,92.492 220.072,93.332 C220.072,95.376 218.28,99.716 218.28,102.096 C218.28,104.7 220.66,105.26 225.756,102.516 L225.756,102.516 Z M241.1,102.152 L240.792,99.912 C234.212,101.172 232.336,100.78 232.14,98.232 C238.692,97.7 241.968,95.46 241.968,91.904 C241.968,89.384 240.26,87.76 237.46,87.76 C232.224,87.76 227.94,93.22 227.94,98.512 C227.94,103.384 231.944,106.828 241.1,102.152 L241.1,102.152 Z M236.228,91.316 C237.292,91.316 237.88,91.932 237.88,92.884 C237.88,94.592 235.92,95.572 232.308,95.852 C232.84,93.472 234.324,91.316 236.228,91.316 L236.228,91.316 Z M257.06,102.152 L256.752,99.912 C250.172,101.172 248.296,100.78 248.1,98.232 C254.652,97.7 257.928,95.46 257.928,91.904 C257.928,89.384 256.22,87.76 253.42,87.76 C248.184,87.76 243.9,93.22 243.9,98.512 C243.9,103.384 247.904,106.828 257.06,102.152 L257.06,102.152 Z M252.188,91.316 C253.252,91.316 253.84,91.932 253.84,92.884 C253.84,94.592 251.88,95.572 248.268,95.852 C248.8,93.472 250.284,91.316 252.188,91.316 L252.188,91.316 Z M274.42,102.908 L274.224,100.696 C270.36,101.564 269.716,101.2 274.868,89.02 L272.768,88.096 C271.48,88.768 269.66,89.412 267.868,89.804 C267.896,89.636 267.896,89.44 267.896,89.272 C267.896,87.928 267.084,87.144 265.852,87.144 C263.556,87.144 261.316,89.328 261.316,91.232 C261.316,92.352 262.128,92.996 263.36,93.304 C262.464,94.788 261.176,96.328 259.496,98.204 L261.008,99.828 C263.332,97.616 265.208,95.46 266.412,93.5 C267.308,93.444 268.204,93.276 269.1,93.08 C264.256,103.86 266.636,106.492 274.42,102.908 L274.42,102.908 Z M285.564,85.828 L286.908,81.432 L281.868,81.656 L280.832,86.052 L285.564,85.828 Z M286.684,102.32 L286.404,100.08 C282.148,100.948 281.896,100.892 282.512,98.176 L284.808,88.068 L280.552,88.32 L277.416,92.38 L279.348,93.64 L278.06,99.044 C276.8,104.252 279.628,106.184 286.684,102.32 L286.684,102.32 Z M305.136,102.516 L304.828,100.332 C302.504,100.836 302.252,100.78 302.252,100.248 C302.252,98.82 304.156,94.032 304.156,90.98 C304.156,89.244 303.428,87.788 300.992,87.788 C299.004,87.788 296.848,88.852 294.748,90.896 L295.112,88.096 L290.828,88.348 C290.212,92.996 289.512,96.524 288.056,104 L292.34,104 L294.328,94.032 C295.784,92.632 297.072,91.96 298.164,91.96 C299.144,91.96 299.452,92.492 299.452,93.332 C299.452,95.376 297.66,99.716 297.66,102.096 C297.66,104.7 300.04,105.26 305.136,102.516 L305.136,102.516 Z M313.368,99.128 C312.36,99.128 311.632,98.456 311.632,96.888 C311.632,94.508 313.004,91.344 314.88,91.344 C315.384,91.344 316.28,91.568 317.372,92.128 C316.728,93.864 316.224,95.908 316.056,97.868 C315.104,98.652 314.208,99.128 313.368,99.128 L313.368,99.128 Z M319.836,105.708 C320.844,103.72 319.808,101.172 319.836,97.672 C321.824,94.508 323.336,90.728 323.336,89.104 C323.336,88.376 321.572,87.676 320.48,87.676 C320.144,87.676 319.752,87.956 319.36,88.432 C318.492,88.04 317.624,87.816 316.7,87.816 C311.016,87.816 307.376,93.136 307.376,98.26 C307.376,101.508 309.056,103.02 311.1,103.02 C312.836,103.02 314.572,102.012 316.112,100.612 C316.28,102.488 316.616,104.224 316.196,104.644 C315.552,105.288 312.444,105.512 307.488,105.204 L307.068,109.32 C314.712,109.6 318.632,108.144 319.836,105.708 L319.836,105.708 Z" id="Software-Engineering" stroke="none" fill="#000000" fill-rule="evenodd"></path>
</svg>
