<?xml version="1.0" encoding="utf-8"?>
<!-- Generator: Adobe Illustrator 19.2.1, SVG Export Plug-In . SVG Version: 6.00 Build 0)  -->
<svg version="1.1" id="Layer_1" xmlns="http://www.w3.org/2000/svg" xmlns:xlink="http://www.w3.org/1999/xlink" x="0px" y="0px"
	 viewBox="0 0 500 500" style="enable-background:new 0 0 500 500;" xml:space="preserve">
<style type="text/css">
	.st0{fill:#FFFFFF;}
	.st1{fill:#2AA9E0;}
</style>
<g>
	<circle class="st0" cx="-729.5" cy="507" r="133"/>
	<path class="st1" d="M-912,324.5v364.9H-547V324.5H-912z M-656.9,469.8c0.1,1.6,0.1,3.2,0.1,4.8c0,49.5-37.7,106.5-106.5,106.5
		c-21.1,0-40.8-6.2-57.4-16.8c2.9,0.4,5.9,0.5,8.9,0.5c17.6,0,33.7-6,46.5-16c-16.4-0.3-30.2-11.1-35-26c2.3,0.4,4.6,0.7,7,0.7
		c3.4,0,6.7-0.4,9.9-1.3c-17.1-3.4-30-18.6-30-36.7c0-0.2,0-0.3,0-0.5c5.1,2.8,10.8,4.5,17,4.7c-10-6.7-16.6-18.2-16.6-31.2
		c0-6.9,1.8-13.3,5.1-18.8c18.5,22.7,46.1,37.6,77.2,39.1c-0.6-2.7-1-5.6-1-8.5c0-20.7,16.8-37.4,37.4-37.4
		c10.8,0,20.5,4.5,27.3,11.8c8.5-1.7,16.5-4.8,23.8-9.1c-2.8,8.7-8.7,16.1-16.5,20.7c7.6-0.9,14.8-2.9,21.5-5.9
		C-643.3,457.9-649.6,464.5-656.9,469.8z"/>
</g>
<g>
	<path class="st0" d="M254.8,123.9c69.8,0.2,125.9,56.8,125.7,126.6c-0.2,69.7-56.9,125.8-126.7,125.5
		c-69.5-0.3-125.6-56.8-125.4-126.4C128.5,179.9,185,123.7,254.8,123.9z M359.8,262.1c5.3-35.1-10.3-76.2-46-100.3
		c-36.2-24.5-84-24.2-119.4,0.3c-36.1,25-50.7,66.5-45.4,99.9c13.5,0,26.8,0,40.4,0c-0.1-1.5,0-2.7-0.2-3.8
		c-2.1-12.2,0.3-23.7,7.3-33.8c3.2-4.7,3.5-8.8,2.6-14.2c-1.2-7.1-0.9-14.5-0.5-21.7c0.2-4.2,2.9-6.6,7.9-5.8
		c8.9,1.4,16.5,5,23,11.1c2.1,1.9,3.7,2.5,6.6,1.7c15.7-4.8,31.5-4.8,47.2,0.2c2.5,0.8,4.2,0.5,6.1-1.5c5.9-6,13.1-9.7,21.3-11.2
		c7.5-1.4,10.4,0.5,10.6,8.2c0.1,7.7-0.9,15.5-1.9,23.2c-0.4,3-0.5,5.2,1.4,7.8c5.8,7.8,9,16.7,9.2,26.5c0.1,4.6-0.5,9.1-0.8,13.4
		C339.6,262.1,349.7,262.1,359.8,262.1z M239.4,300.4c-2.2-0.5-4-0.9-5.7-1.3c-16.9-3.6-31.4-10.7-40.1-26.7c-0.5-1-2-2-3-2
		c-11.6-0.6-23.3-1.8-34.5,3c-3.6,1.6-5,3-3.7,7.3c7.8,24.4,22.2,43.8,43.3,58.1c8.8,5.9,18.2,10.7,29.2,13.4c0-4.2,0-7.8,0-11.5
		c0-3.8,0-7.5,0-11.7c-5,0-9.4,0-13.9,0c-9.6-0.1-16.9-3.8-21.3-12.8c-2.1-4.3-4.9-8.3-7.8-12.1c-2.4-3.1-5.4-5.7-8.8-9.1
		c2.2-0.1,3.8-0.4,5.3-0.2c6.4,0.7,10.8,4.5,14.6,9.5c8.6,11.1,20.7,14.2,33.8,8.8c2.1-0.9,4-2.4,5.6-4
		C234.7,306.3,236.8,303.5,239.4,300.4z M358.3,271.6c-9.8-3.3-19.6-2.9-29.4-2.2c-1.4,0.1-3.2,1.7-3.9,3
		c-5.6,10.4-14.1,17.6-25,21.9c-6.7,2.6-13.7,4.4-20.8,6.6c14.4,12.7,15.4,29.7,14.4,47.3C323.6,338.4,352.7,305.9,358.3,271.6z
		 M264.3,356.1c0-7.9,0.3-15.1-0.2-22.3c-0.1-1.7-2.8-4.1-4.6-4.5c-1.3-0.2-4.5,2.3-4.6,3.8c-0.5,7.7-0.2,15.4-0.2,23
		C258,356.1,260.8,356.1,264.3,356.1z M244.5,355.8c0-1.9,0-3.3,0-4.8c0-3.7,0.5-7.4-0.2-11c-0.4-1.9-2.5-4.4-4.3-4.9
		c-3.1-0.9-4.8,1.6-5.2,4.6c-0.2,2.1-0.1,4.3-0.1,6.5C234.6,355.2,234.6,355.2,244.5,355.8z M191.5,268c-3.3-5.3-30.5-5.9-42.2-1.4
		c0.4,2,0.9,4.2,1.4,6.7C163.8,266,177.5,266.8,191.5,268z M274.3,353.7c0.5,0.5,1,1.1,1.5,1.6c2.8-1.8,6.7-2.9,7.9-5.5
		c1.4-2.8,0.8-7,0-10.3c-0.4-1.8-3.1-4.3-4.7-4.3c-1.6,0-4.2,2.8-4.4,4.6C273.8,344.4,274.3,349.1,274.3,353.7z M359.3,267.9
		c-0.2-0.5-0.4-2-0.9-2.1c-10.2-2.7-20.3-2.4-31.6,0.3C338.3,266.7,348.6,267.3,359.3,267.9z"/>
</g>
</svg>
