<?xml version="1.0" encoding="utf-8"?>
<!-- Generator: Adobe Illustrator 19.2.1, SVG Export Plug-In . SVG Version: 6.00 Build 0)  -->
<svg version="1.1" id="Layer_1" xmlns="http://www.w3.org/2000/svg" xmlns:xlink="http://www.w3.org/1999/xlink" x="0px" y="0px"
	 viewBox="0 0 500 500" style="enable-background:new 0 0 500 500;" xml:space="preserve">
<style type="text/css">
	.st0{fill:#FFFFFF;}
	.st1{fill:#2AA9E0;}
	.st2{fill:url(#SVGID_1_);}
	.st3{fill:#B8B6B2;}
	.st4{fill:#FF4A3D;}
	.st5{fill:#C02C20;}
</style>
<g>
	<circle class="st0" cx="-729.5" cy="507" r="133"/>
	<path class="st1" d="M-912,324.5v364.9H-547V324.5H-912z M-656.9,469.8c0.1,1.6,0.1,3.2,0.1,4.8c0,49.5-37.7,106.5-106.5,106.5
		c-21.1,0-40.8-6.2-57.4-16.8c2.9,0.4,5.9,0.5,8.9,0.5c17.6,0,33.7-6,46.5-16c-16.4-0.3-30.2-11.1-35-26c2.3,0.4,4.6,0.7,7,0.7
		c3.4,0,6.7-0.4,9.9-1.3c-17.1-3.4-30-18.6-30-36.7c0-0.2,0-0.3,0-0.5c5.1,2.8,10.8,4.5,17,4.7c-10-6.7-16.6-18.2-16.6-31.2
		c0-6.9,1.8-13.3,5.1-18.8c18.5,22.7,46.1,37.6,77.2,39.1c-0.6-2.7-1-5.6-1-8.5c0-20.7,16.8-37.4,37.4-37.4
		c10.8,0,20.5,4.5,27.3,11.8c8.5-1.7,16.5-4.8,23.8-9.1c-2.8,8.7-8.7,16.1-16.5,20.7c7.6-0.9,14.8-2.9,21.5-5.9
		C-643.3,457.9-649.6,464.5-656.9,469.8z"/>
</g>
<g>
	<linearGradient id="SVGID_1_" gradientUnits="userSpaceOnUse" x1="140.6191" y1="250" x2="306.4871" y2="250">
		<stop  offset="0" style="stop-color:#F5F2E9"/>
		<stop  offset="1" style="stop-color:#E6E2D1"/>
	</linearGradient>
	<path class="st2" d="M340.1,174.1H160.2c-10.8,0-19.6,8.8-19.6,19.6v112.6c0,10.8,8.8,19.6,19.6,19.6h179.9
		c10.8,0,19.6-8.8,19.6-19.6V193.7C359.7,183,350.8,174.1,340.1,174.1z"/>
	<g>
		<polygon class="st3" points="249.3,279.6 167.8,323.8 167.9,325.9 250.3,281.5 		"/>
	</g>
	<g>
		<path class="st3" d="M341.8,200.4l-52.3,32.7l-39.2,48.4l79.7,44.4h10.1c7.2,0,13.6-4,17-9.8l-15.3-45V200.4z"/>
	</g>
	<path class="st4" d="M250.3,281.5l109.4-84.7v-3.1c0-10.8-8.8-19.6-19.6-19.6h-4.4l-82.8,70.7l-86.2-70.7h-6.5
		c-10.8,0-19.6,8.8-19.6,19.6v112.6c0,10.8,8.8,19.6,19.6,19.6h7.7V216.1L250.3,281.5z"/>
	<g>
		<g>
			<path class="st5" d="M359.7,306.3V196.8l-29.6,23v106.1h10.1C350.8,325.9,359.7,317,359.7,306.3z"/>
		</g>
	</g>
</g>
</svg>
