<?xml version="1.0" encoding="utf-8"?>
<!-- Generator: Adobe Illustrator 19.2.1, SVG Export Plug-In . SVG Version: 6.00 Build 0)  -->
<svg version="1.1" id="Layer_1" xmlns="http://www.w3.org/2000/svg" xmlns:xlink="http://www.w3.org/1999/xlink" x="0px" y="0px"
	 viewBox="0 0 500 500" style="enable-background:new 0 0 500 500;" xml:space="preserve">
<style type="text/css">
	.st0{fill:#FFFFFF;}
</style>
<g>
	<path class="st0" d="M336.2,178.5c-7.2,4.3-15.3,7.4-23.8,9.1c-6.8-7.3-16.6-11.8-27.3-11.8c-20.7,0-37.4,16.7-37.4,37.4
		c0,2.9,0.3,5.8,1,8.5c-31.1-1.6-58.7-16.5-77.2-39.1c-3.2,5.5-5.1,12-5.1,18.8c0,13,6.6,24.5,16.6,31.2c-6.1-0.2-12-1.9-17-4.7
		c0,0.2,0,0.3,0,0.5c0,18.1,13,33.3,30.1,36.7c-3.1,0.9-6.4,1.3-9.8,1.3c-2.4,0-4.7-0.2-7-0.7c4.8,14.9,18.6,25.7,35,26
		c-12.8,10-28.9,16-46.5,16c-3,0-6-0.2-8.9-0.5c16.6,10.6,36.2,16.8,57.4,16.8c68.9,0,106.5-57,106.5-106.5c0-1.6,0-3.2-0.1-4.8
		c7.3-5.3,13.7-11.9,18.7-19.4c-6.7,3-13.9,5-21.5,5.9C327.5,194.6,333.4,187.2,336.2,178.5z"/>
</g>
</svg>
