<?xml version="1.0" encoding="UTF-8" standalone="no"?><svg xmlns="http://www.w3.org/2000/svg" xmlns:xlink="http://www.w3.org/1999/xlink" clip-rule="evenodd" stroke-miterlimit="10" viewBox="0 0 621 30"><desc>SVG generated by Keynote</desc><defs></defs><g transform="matrix(1.00, 0.00, -0.00, -1.00, 0.0, 30.0)"><text xml:space="preserve" font-family="CourierNewPSMT,Courier New" font-size="30.0" fill="#5A544B" transform="matrix(1.00, 0.00, -0.00, -1.00, -0.3, 8.0)">T</text><text xml:space="preserve" font-family="CourierNewPSMT,Courier New" font-size="30.0" fill="#5A544B" transform="matrix(1.00, 0.00, -0.00, -1.00, 17.7, 8.0)">o</text><text xml:space="preserve" font-family="CourierNewPSMT,Courier New" font-size="30.0" fill="#5A544B" transform="matrix(1.00, 0.00, -0.00, -1.00, 35.7, 8.0)">t</text><text xml:space="preserve" font-family="CourierNewPSMT,Courier New" font-size="30.0" fill="#5A544B" transform="matrix(1.00, 0.00, -0.00, -1.00, 53.7, 8.0)">a</text><text xml:space="preserve" font-family="CourierNewPSMT,Courier New" font-size="30.0" fill="#5A544B" transform="matrix(1.00, 0.00, -0.00, -1.00, 71.7, 8.0)">l</text><text xml:space="preserve" font-family="CourierNewPSMT,Courier New" font-size="30.0" fill="#5A544B" transform="matrix(1.00, 0.00, -0.00, -1.00, 89.7, 8.0)"> </text><text xml:space="preserve" font-family="CourierNewPSMT,Courier New" font-size="30.0" fill="#5A544B" transform="matrix(1.00, 0.00, -0.00, -1.00, 107.8, 8.0)">N</text><text xml:space="preserve" font-family="CourierNewPSMT,Courier New" font-size="30.0" fill="#5A544B" transform="matrix(1.00, 0.00, -0.00, -1.00, 125.8, 8.0)">e</text><text xml:space="preserve" font-family="CourierNewPSMT,Courier New" font-size="30.0" fill="#5A544B" transform="matrix(1.00, 0.00, -0.00, -1.00, 143.8, 8.0)">t</text><text xml:space="preserve" font-family="CourierNewPSMT,Courier New" font-size="30.0" fill="#5A544B" transform="matrix(1.00, 0.00, -0.00, -1.00, 161.8, 8.0)"> </text><text xml:space="preserve" font-family="CourierNewPSMT,Courier New" font-size="30.0" fill="#5A544B" transform="matrix(1.00, 0.00, -0.00, -1.00, 179.8, 8.0)">P</text><text xml:space="preserve" font-family="CourierNewPSMT,Courier New" font-size="30.0" fill="#5A544B" transform="matrix(1.00, 0.00, -0.00, -1.00, 197.8, 8.0)">a</text><text xml:space="preserve" font-family="CourierNewPSMT,Courier New" font-size="30.0" fill="#5A544B" transform="matrix(1.00, 0.00, -0.00, -1.00, 215.8, 8.0)">y</text><text xml:space="preserve" font-family="CourierNewPSMT,Courier New" font-size="30.0" fill="#5A544B" transform="matrix(1.00, 0.00, -0.00, -1.00, 233.8, 8.0)"> </text><text xml:space="preserve" font-family="CourierNewPSMT,Courier New" font-size="30.0" fill="#5A544B" transform="matrix(1.00, 0.00, -0.00, -1.00, 251.8, 8.0)">:</text><text xml:space="preserve" font-family="CourierNewPSMT,Courier New" font-size="30.0" fill="#5A544B" transform="matrix(1.00, 0.00, -0.00, -1.00, 269.8, 8.0)"> </text><text xml:space="preserve" font-family="CourierNewPSMT,Courier New" font-size="30.0" fill="#5A544B" transform="matrix(1.00, 0.00, -0.00, -1.00, 275.8, 8.0)"> </text><text xml:space="preserve" font-family="CourierNewPSMT,Courier New" font-size="30.0" fill="#5A544B" transform="matrix(1.00, 0.00, -0.00, -1.00, 321.7, 8.0)"> </text><text xml:space="preserve" font-family="CourierNewPSMT,Courier New" font-size="30.0" fill="#5A544B" transform="matrix(1.00, 0.00, -0.00, -1.00, 367.7, 8.0)"> </text><text xml:space="preserve" font-family="CourierNewPSMT,Courier New" font-size="30.0" fill="#5A544B" transform="matrix(1.00, 0.00, -0.00, -1.00, 413.7, 8.0)"> </text><text xml:space="preserve" font-family="CourierNewPS-BoldMT,Courier New" font-weight="bold" font-size="30.0" fill="#5A544B" transform="matrix(1.00, 0.00, -0.00, -1.00, 459.7, 8.0)">$</text><text xml:space="preserve" font-family="CourierNewPS-BoldMT,Courier New" font-weight="bold" font-size="30.0" fill="#5A544B" transform="matrix(1.00, 0.00, -0.00, -1.00, 477.7, 8.0)">1</text><text xml:space="preserve" font-family="CourierNewPS-BoldMT,Courier New" font-weight="bold" font-size="30.0" fill="#5A544B" transform="matrix(1.00, 0.00, -0.00, -1.00, 495.7, 8.0)">,</text><text xml:space="preserve" font-family="CourierNewPS-BoldMT,Courier New" font-weight="bold" font-size="30.0" fill="#5A544B" transform="matrix(1.00, 0.00, -0.00, -1.00, 513.7, 8.0)">1</text><text xml:space="preserve" font-family="CourierNewPS-BoldMT,Courier New" font-weight="bold" font-size="30.0" fill="#5A544B" transform="matrix(1.00, 0.00, -0.00, -1.00, 531.7, 8.0)">1</text><text xml:space="preserve" font-family="CourierNewPS-BoldMT,Courier New" font-weight="bold" font-size="30.0" fill="#5A544B" transform="matrix(1.00, 0.00, -0.00, -1.00, 549.7, 8.0)">4</text><text xml:space="preserve" font-family="CourierNewPS-BoldMT,Courier New" font-weight="bold" font-size="30.0" fill="#5A544B" transform="matrix(1.00, 0.00, -0.00, -1.00, 567.8, 8.0)">.</text><text xml:space="preserve" font-family="CourierNewPS-BoldMT,Courier New" font-weight="bold" font-size="30.0" fill="#5A544B" transform="matrix(1.00, 0.00, -0.00, -1.00, 585.8, 8.0)">7</text><text xml:space="preserve" font-family="CourierNewPS-BoldMT,Courier New" font-weight="bold" font-size="30.0" fill="#5A544B" transform="matrix(1.00, 0.00, -0.00, -1.00, 603.8, 8.0)">7</text></g></svg>