<?xml version="1.0" encoding="UTF-8" standalone="no"?><svg xmlns="http://www.w3.org/2000/svg" xmlns:xlink="http://www.w3.org/1999/xlink" clip-rule="evenodd" stroke-miterlimit="10" viewBox="0 0 293 53"><desc>SVG generated by Keynote</desc><defs></defs><g transform="matrix(1.00, 0.00, -0.00, -1.00, 0.0, 53.0)"><path d="M 1.0 51.0 L 292.0 51.0 L 292.0 2.0 L 1.0 2.0 Z M 1.2 51.0 " fill="#0096EA" fill-opacity="0.62"></path><g><clipPath id="clip0x608000cbe360"><path d="M -5.1 -4.3 L 298.2 -4.3 L 298.2 57.3 L -5.1 57.3 Z M -5.1 -4.3 "></path></clipPath><g clip-path="url(#clip0x608000cbe360)"><text xml:space="preserve" font-family="MarkerFelt-Thin,Marker Felt" font-size="38.0" fill="#FEFFFE" transform="matrix(1.00, 0.00, -0.00, -1.00, 6.7, 14.3)">1</text><text xml:space="preserve" font-family="MarkerFelt-Thin,Marker Felt" font-size="38.0" fill="#FEFFFE" transform="matrix(1.00, 0.00, -0.00, -1.00, 28.3, 14.3)">4</text><text xml:space="preserve" font-family="MarkerFelt-Thin,Marker Felt" font-size="38.0" fill="#FEFFFE" transform="matrix(1.00, 0.00, -0.00, -1.00, 50.0, 14.3)">%</text><text xml:space="preserve" font-family="MarkerFelt-Thin,Marker Felt" font-size="38.0" fill="#FEFFFE" transform="matrix(1.00, 0.00, -0.00, -1.00, 76.6, 14.3)"> </text><text xml:space="preserve" font-family="MarkerFelt-Thin,Marker Felt" font-size="38.0" fill="#FEFFFE" transform="matrix(1.00, 0.00, -0.00, -1.00, 86.1, 14.3)">o</text><text xml:space="preserve" font-family="MarkerFelt-Thin,Marker Felt" font-size="38.0" fill="#FEFFFE" transform="matrix(1.00, 0.00, -0.00, -1.00, 103.4, 14.3)">f</text><text xml:space="preserve" font-family="MarkerFelt-Thin,Marker Felt" font-size="38.0" fill="#FEFFFE" transform="matrix(1.00, 0.00, -0.00, -1.00, 117.0, 14.3)"> </text><text xml:space="preserve" font-family="MarkerFelt-Thin,Marker Felt" font-size="38.0" fill="#FEFFFE" transform="matrix(1.00, 0.00, -0.00, -1.00, 126.5, 14.3)">m</text><text xml:space="preserve" font-family="MarkerFelt-Thin,Marker Felt" font-size="38.0" fill="#FEFFFE" transform="matrix(1.00, 0.00, -0.00, -1.00, 155.2, 14.3)">y</text><text xml:space="preserve" font-family="MarkerFelt-Thin,Marker Felt" font-size="38.0" fill="#FEFFFE" transform="matrix(1.00, 0.00, -0.00, -1.00, 173.0, 14.3)"> </text><text xml:space="preserve" font-family="MarkerFelt-Thin,Marker Felt" font-size="38.0" fill="#FEFFFE" transform="matrix(1.00, 0.00, -0.00, -1.00, 182.5, 14.3)">i</text><text xml:space="preserve" font-family="MarkerFelt-Thin,Marker Felt" font-size="38.0" fill="#FEFFFE" transform="matrix(1.00, 0.00, -0.00, -1.00, 192.0, 14.3)">n</text><text xml:space="preserve" font-family="MarkerFelt-Thin,Marker Felt" font-size="38.0" fill="#FEFFFE" transform="matrix(1.00, 0.00, -0.00, -1.00, 211.9, 14.3)">c</text><text xml:space="preserve" font-family="MarkerFelt-Thin,Marker Felt" font-size="38.0" fill="#FEFFFE" transform="matrix(1.00, 0.00, -0.00, -1.00, 228.1, 14.3)">o</text><text xml:space="preserve" font-family="MarkerFelt-Thin,Marker Felt" font-size="38.0" fill="#FEFFFE" transform="matrix(1.00, 0.00, -0.00, -1.00, 244.6, 14.3)">m</text><text xml:space="preserve" font-family="MarkerFelt-Thin,Marker Felt" font-size="38.0" fill="#FEFFFE" transform="matrix(1.00, 0.00, -0.00, -1.00, 272.0, 14.3)">e</text></g></g></g></svg>