<?xml version="1.0" encoding="UTF-8" standalone="no"?><svg xmlns="http://www.w3.org/2000/svg" xmlns:xlink="http://www.w3.org/1999/xlink" clip-rule="evenodd" stroke-miterlimit="10" viewBox="0 0 629 23"><desc>SVG generated by Keynote</desc><defs></defs><g transform="matrix(1.00, 0.00, -0.00, -1.00, 0.0, 23.0)"><text xml:space="preserve" font-family="CourierNewPSMT,Courier New" font-size="30.0" fill="#5A544B" transform="matrix(1.00, 0.00, -0.00, -1.00, -2.3, 3.0)">9</text><text xml:space="preserve" font-family="CourierNewPSMT,Courier New" font-size="30.0" fill="#5A544B" transform="matrix(1.00, 0.00, -0.00, -1.00, 15.7, 3.0)">9</text><text xml:space="preserve" font-family="CourierNewPSMT,Courier New" font-size="30.0" fill="#5A544B" transform="matrix(1.00, 0.00, -0.00, -1.00, 33.7, 3.0)">3</text><text xml:space="preserve" font-family="CourierNewPSMT,Courier New" font-size="30.0" fill="#5A544B" transform="matrix(1.00, 0.00, -0.00, -1.00, 51.7, 3.0)">1</text><text xml:space="preserve" font-family="CourierNewPSMT,Courier New" font-size="30.0" fill="#5A544B" transform="matrix(1.00, 0.00, -0.00, -1.00, 69.7, 3.0)"> </text><text xml:space="preserve" font-family="CourierNewPSMT,Courier New" font-size="30.0" fill="#5A544B" transform="matrix(1.00, 0.00, -0.00, -1.00, 89.7, 3.0)"> </text><text xml:space="preserve" font-family="CourierNewPSMT,Courier New" font-size="30.0" fill="#5A544B" transform="matrix(1.00, 0.00, -0.00, -1.00, 135.7, 3.0)">T</text><text xml:space="preserve" font-family="CourierNewPSMT,Courier New" font-size="30.0" fill="#5A544B" transform="matrix(1.00, 0.00, -0.00, -1.00, 153.7, 3.0)">U</text><text xml:space="preserve" font-family="CourierNewPSMT,Courier New" font-size="30.0" fill="#5A544B" transform="matrix(1.00, 0.00, -0.00, -1.00, 171.7, 3.0)">I</text><text xml:space="preserve" font-family="CourierNewPSMT,Courier New" font-size="30.0" fill="#5A544B" transform="matrix(1.00, 0.00, -0.00, -1.00, 189.7, 3.0)">T</text><text xml:space="preserve" font-family="CourierNewPSMT,Courier New" font-size="30.0" fill="#5A544B" transform="matrix(1.00, 0.00, -0.00, -1.00, 207.7, 3.0)">I</text><text xml:space="preserve" font-family="CourierNewPSMT,Courier New" font-size="30.0" fill="#5A544B" transform="matrix(1.00, 0.00, -0.00, -1.00, 225.8, 3.0)">O</text><text xml:space="preserve" font-family="CourierNewPSMT,Courier New" font-size="30.0" fill="#5A544B" transform="matrix(1.00, 0.00, -0.00, -1.00, 243.8, 3.0)">N</text><text xml:space="preserve" font-family="CourierNewPSMT,Courier New" font-size="30.0" fill="#5A544B" transform="matrix(1.00, 0.00, -0.00, -1.00, 261.8, 3.0)"> </text><text xml:space="preserve" font-family="CourierNewPSMT,Courier New" font-size="30.0" fill="#5A544B" transform="matrix(1.00, 0.00, -0.00, -1.00, 279.8, 3.0)">F</text><text xml:space="preserve" font-family="CourierNewPSMT,Courier New" font-size="30.0" fill="#5A544B" transform="matrix(1.00, 0.00, -0.00, -1.00, 297.8, 3.0)">E</text><text xml:space="preserve" font-family="CourierNewPSMT,Courier New" font-size="30.0" fill="#5A544B" transform="matrix(1.00, 0.00, -0.00, -1.00, 315.8, 3.0)">L</text><text xml:space="preserve" font-family="CourierNewPSMT,Courier New" font-size="30.0" fill="#5A544B" transform="matrix(1.00, 0.00, -0.00, -1.00, 333.8, 3.0)">L</text><text xml:space="preserve" font-family="CourierNewPSMT,Courier New" font-size="30.0" fill="#5A544B" transform="matrix(1.00, 0.00, -0.00, -1.00, 351.8, 3.0)">O</text><text xml:space="preserve" font-family="CourierNewPSMT,Courier New" font-size="30.0" fill="#5A544B" transform="matrix(1.00, 0.00, -0.00, -1.00, 369.8, 3.0)">W</text><text xml:space="preserve" font-family="CourierNewPSMT,Courier New" font-size="30.0" fill="#5A544B" transform="matrix(1.00, 0.00, -0.00, -1.00, 387.8, 3.0)"> </text><text xml:space="preserve" font-family="CourierNewPSMT,Courier New" font-size="30.0" fill="#5A544B" transform="matrix(1.00, 0.00, -0.00, -1.00, 411.8, 3.0)"> </text><text xml:space="preserve" font-family="CourierNewPSMT,Courier New" font-size="30.0" fill="#5A544B" transform="matrix(1.00, 0.00, -0.00, -1.00, 429.8, 3.0)"> </text><text xml:space="preserve" font-family="CourierNewPSMT,Courier New" font-size="30.0" fill="#5A544B" transform="matrix(1.00, 0.00, -0.00, -1.00, 457.8, 3.0)"> </text><text xml:space="preserve" font-family="CourierNewPSMT,Courier New" font-size="30.0" fill="#5A544B" transform="matrix(1.00, 0.00, -0.00, -1.00, 503.8, 3.0)">1</text><text xml:space="preserve" font-family="CourierNewPSMT,Courier New" font-size="30.0" fill="#5A544B" transform="matrix(1.00, 0.00, -0.00, -1.00, 521.8, 3.0)">4</text><text xml:space="preserve" font-family="CourierNewPSMT,Courier New" font-size="30.0" fill="#5A544B" transform="matrix(1.00, 0.00, -0.00, -1.00, 539.8, 3.0)">7</text><text xml:space="preserve" font-family="CourierNewPSMT,Courier New" font-size="30.0" fill="#5A544B" transform="matrix(1.00, 0.00, -0.00, -1.00, 557.8, 3.0)">.</text><text xml:space="preserve" font-family="CourierNewPSMT,Courier New" font-size="30.0" fill="#5A544B" transform="matrix(1.00, 0.00, -0.00, -1.00, 575.8, 3.0)">3</text><text xml:space="preserve" font-family="CourierNewPSMT,Courier New" font-size="30.0" fill="#5A544B" transform="matrix(1.00, 0.00, -0.00, -1.00, 593.8, 3.0)">1</text><text xml:space="preserve" font-family="CourierNewPSMT,Courier New" font-size="30.0" fill="#5A544B" transform="matrix(1.00, 0.00, -0.00, -1.00, 611.8, 3.0)">-</text></g></svg>